<?xml version="1.0" encoding="utf-8"?>
<!-- Generator: Adobe Illustrator 19.0.0, SVG Export Plug-In . SVG Version: 6.00 Build 0)  -->
<!DOCTYPE svg PUBLIC "-//W3C//DTD SVG 1.1//EN" "http://www.w3.org/Graphics/SVG/1.1/DTD/svg11.dtd">
<svg version="1.1" id="Capa_1" xmlns="http://www.w3.org/2000/svg" xmlns:xlink="http://www.w3.org/1999/xlink" x="0px" y="0px"
	 viewBox="-430 232.2 97.8 97.8" style="enable-background:new -430 232.2 97.8 97.8;" xml:space="preserve">
<style type="text/css">
	.st0{fill:#FFFFFF;}
</style>
<g>
	<path class="st0" d="M-381.1,232.2c-27,0-48.9,21.9-48.9,48.9s21.9,48.9,48.9,48.9s48.9-21.9,48.9-48.9S-354.1,232.2-381.1,232.2z
		 M-404.3,301.5h-13.3v-4h13.3C-404.3,297.5-404.3,301.5-404.3,301.5z M-404.3,296.3h-13.3v-4h13.3
		C-404.3,292.2-404.3,296.3-404.3,296.3z M-404.3,291h-13.3v-4h13.3C-404.3,287-404.3,291-404.3,291z M-404.3,285.8h-13.3v-4h13.3
		C-404.3,281.7-404.3,285.8-404.3,285.8z M-404.3,280.5h-13.3v-4h13.3C-404.3,276.5-404.3,280.5-404.3,280.5z M-389.4,301.5h-13.3
		v-4h13.3V301.5z M-389.4,296.3h-13.3v-4h13.3V296.3z M-389.4,291h-13.3v-4h13.3V291z M-374.5,301.5h-13.3v-4h13.3L-374.5,301.5
		L-374.5,301.5z M-374.5,296.3h-13.3v-4h13.3L-374.5,296.3L-374.5,296.3z M-374.5,291h-13.3v-4h13.3L-374.5,291L-374.5,291z
		 M-374.5,285.8h-13.3v-4h13.3L-374.5,285.8L-374.5,285.8z M-374.5,280.5h-13.3v-4h13.3L-374.5,280.5L-374.5,280.5z M-374.5,275.3
		h-13.3v-4h13.3L-374.5,275.3L-374.5,275.3z M-374.5,270h-13.3v-4h13.3L-374.5,270L-374.5,270z M-359.5,301.5h-13.3v-4h13.3
		L-359.5,301.5L-359.5,301.5z M-359.5,296.3h-13.3v-4h13.3L-359.5,296.3L-359.5,296.3z M-359.5,291h-13.3v-4h13.3L-359.5,291
		L-359.5,291z M-359.5,285.8h-13.3v-4h13.3L-359.5,285.8L-359.5,285.8z M-359.5,280.5h-13.3v-4h13.3L-359.5,280.5L-359.5,280.5z
		 M-344.6,301.5h-13.3v-4h13.3L-344.6,301.5L-344.6,301.5z M-344.6,296.3h-13.3v-4h13.3L-344.6,296.3L-344.6,296.3z M-344.6,291
		h-13.3v-4h13.3L-344.6,291L-344.6,291z M-344.6,285.8h-13.3v-4h13.3L-344.6,285.8L-344.6,285.8z M-344.6,280.5h-13.3v-4h13.3
		L-344.6,280.5L-344.6,280.5z M-344.6,275.3h-13.3v-4h13.3L-344.6,275.3L-344.6,275.3z M-344.6,270h-13.3v-4h13.3L-344.6,270
		L-344.6,270z M-357.9,264.8v-4h13.3v4H-357.9z"/>
</g>
</svg>
