<?xml version="1.0" encoding="utf-8"?>
<!-- Generator: Adobe Illustrator 19.0.0, SVG Export Plug-In . SVG Version: 6.00 Build 0)  -->
<!DOCTYPE svg PUBLIC "-//W3C//DTD SVG 1.1//EN" "http://www.w3.org/Graphics/SVG/1.1/DTD/svg11.dtd">
<svg version="1.1" id="Capa_1" xmlns="http://www.w3.org/2000/svg" xmlns:xlink="http://www.w3.org/1999/xlink" x="0px" y="0px"
	 viewBox="-454 256.3 49.7 49.7" style="enable-background:new -454 256.3 49.7 49.7;" xml:space="preserve">
<style type="text/css">
	.st0{fill:#FFFFFF;}
</style>
<path class="st0" d="M-429.1,256.4c-13.7,0-24.8,11.1-24.8,24.8s11.1,24.8,24.8,24.8s24.8-11.1,24.8-24.8S-415.5,256.4-429.1,256.4z
	 M-418.6,278l-8.8,9.6c-0.5,0.5-1.1,0.8-1.8,0.8s-1.3-0.3-1.8-0.8l-8.8-9.6l0,0c-0.4-0.4-0.6-1-0.6-1.6c0-1.3,1.1-2.4,2.4-2.4
	c0.7,0,1.3,0.3,1.8,0.8l0,0l7,7.7l7-7.7l0,0c0.4-0.5,1.1-0.8,1.8-0.8c1.3,0,2.4,1.1,2.4,2.4C-417.9,277-418.2,277.5-418.6,278
	L-418.6,278z"/>
</svg>
