<?xml version="1.0" encoding="utf-8"?>
<!-- Generator: Adobe Illustrator 19.0.0, SVG Export Plug-In . SVG Version: 6.00 Build 0)  -->
<!DOCTYPE svg PUBLIC "-//W3C//DTD SVG 1.1//EN" "http://www.w3.org/Graphics/SVG/1.1/DTD/svg11.dtd">
<svg version="1.1" id="Capa_1" xmlns="http://www.w3.org/2000/svg" xmlns:xlink="http://www.w3.org/1999/xlink" x="0px" y="0px"
	 viewBox="-454 256.3 49.7 49.7" style="enable-background:new -454 256.3 49.7 49.7;" xml:space="preserve">
<style type="text/css">
	.st0{fill:#FFFFFF;}
</style>
<g>
	<g>
		<path class="st0" d="M-429.2,256.3c-13.7,0-24.8,11.1-24.8,24.8c0,13.7,11.1,24.8,24.8,24.8c13.7,0,24.8-11.1,24.8-24.8
			C-404.3,267.5-415.5,256.3-429.2,256.3z M-423,282h-4c0,6.5,0,14.4,0,14.4h-6c0,0,0-7.9,0-14.4h-2.8V277h2.8v-3.3c0-2.4,1.1-6,6-6
			l4.4,0v4.9c0,0-2.7,0-3.2,0c-0.5,0-1.3,0.3-1.3,1.4v3h4.6L-423,282z"/>
	</g>
</g>
</svg>
