<?xml version="1.0" encoding="utf-8"?>
<!-- Generator: Adobe Illustrator 19.0.0, SVG Export Plug-In . SVG Version: 6.00 Build 0)  -->
<!DOCTYPE svg PUBLIC "-//W3C//DTD SVG 1.1//EN" "http://www.w3.org/Graphics/SVG/1.1/DTD/svg11.dtd">
<svg version="1.1" xmlns="http://www.w3.org/2000/svg" xmlns:xlink="http://www.w3.org/1999/xlink" x="0px" y="0px"
	 viewBox="-272 396.2 49.7 49.7" style="enable-background:new -272 396.2 49.7 49.7;" xml:space="preserve">
<style type="text/css">
	.st0{fill:#FFFFFF;}
</style>
<g id="Layer_2">
</g>
<g id="Capa_1">
	<g>
		<g>
			<path class="st0" d="M-246.7,396.6c-13.7,0-24.8,11.1-24.8,24.8c0,13.7,11.1,24.8,24.8,24.8c13.7,0,24.8-11.1,24.8-24.8
				C-221.8,407.8-233,396.6-246.7,396.6z"/>
		</g>
	</g>
	<g>
		<path d="M-239.9,406.3h-13.5c-4.6,0-8.3,3.7-8.3,8.3v13.5c0,4.6,3.7,8.3,8.3,8.3h13.5c4.6,0,8.3-3.7,8.3-8.3v-13.5
			C-231.6,410-235.4,406.3-239.9,406.3z M-234.3,428.1c0,3.1-2.5,5.6-5.6,5.6h-13.5c-3.1,0-5.6-2.5-5.6-5.6v-13.5
			c0-3.1,2.5-5.6,5.6-5.6h13.5c3.1,0,5.6,2.5,5.6,5.6L-234.3,428.1L-234.3,428.1z"/>
		<path d="M-246.7,413.6c-4.3,0-7.8,3.5-7.8,7.8c0,4.3,3.5,7.8,7.8,7.8c4.3,0,7.8-3.5,7.8-7.8C-238.9,417.1-242.4,413.6-246.7,413.6
			z M-246.7,426.5c-2.8,0-5.1-2.3-5.1-5.1c0-2.8,2.3-5.1,5.1-5.1s5.1,2.3,5.1,5.1C-241.6,424.2-243.9,426.5-246.7,426.5z"/>
		<path d="M-238.6,411.3c-0.5,0-1,0.2-1.4,0.6c-0.4,0.4-0.6,0.9-0.6,1.4c0,0.5,0.2,1,0.6,1.4c0.4,0.4,0.9,0.6,1.4,0.6
			c0.5,0,1-0.2,1.4-0.6c0.4-0.4,0.6-0.9,0.6-1.4c0-0.5-0.2-1-0.6-1.4C-237.6,411.5-238.1,411.3-238.6,411.3z"/>
	</g>
</g>
</svg>
