<?xml version="1.0" encoding="utf-8"?>
<!-- Generator: Adobe Illustrator 19.0.0, SVG Export Plug-In . SVG Version: 6.00 Build 0)  -->
<!DOCTYPE svg PUBLIC "-//W3C//DTD SVG 1.1//EN" "http://www.w3.org/Graphics/SVG/1.1/DTD/svg11.dtd">
<svg version="1.1" id="Capa_1" xmlns="http://www.w3.org/2000/svg" xmlns:xlink="http://www.w3.org/1999/xlink" x="0px" y="0px"
	 viewBox="-434 236 90 90" style="enable-background:new -434 236 90 90;" xml:space="preserve">
<style type="text/css">
	.st0{fill:#FFFFFF;}
</style>
<g>
	<path class="st0" d="M-389,236c-24.9,0-45,20.1-45,45s20.1,45,45,45s45-20.1,45-45S-364.1,236-389,236z M-378.9,300.8
		c-3.8,0.5-7.2-2.2-7.5-6.1c-0.3-3.8,2.6-7.3,6.4-7.8c1.2-0.1,2.4,0,3.4,0.4v-18.8l-18,3.3v23.5h0c0,0.1,0,0.1,0,0.2
		c0.3,3.8-2.6,7.3-6.4,7.8c-3.8,0.5-7.2-2.2-7.5-6.1c-0.3-3.8,2.6-7.3,6.4-7.8c1.2-0.2,2.4,0,3.4,0.4V263v0l26.1-4.5l0,0v0l0,0
		l0,0.1v34.2h0c0,0.1,0,0.1,0,0.2C-372.2,296.9-375.1,300.4-378.9,300.8z"/>
</g>
</svg>
