<?xml version="1.0" encoding="utf-8"?>
<!-- Generator: Adobe Illustrator 19.0.0, SVG Export Plug-In . SVG Version: 6.00 Build 0)  -->
<!DOCTYPE svg PUBLIC "-//W3C//DTD SVG 1.1//EN" "http://www.w3.org/Graphics/SVG/1.1/DTD/svg11.dtd">
<svg version="1.1" id="Capa_1" xmlns="http://www.w3.org/2000/svg" xmlns:xlink="http://www.w3.org/1999/xlink" x="0px" y="0px"
	 viewBox="-430 232.2 101.5 97.8" style="enable-background:new -430 232.2 101.5 97.8;" xml:space="preserve">
<style type="text/css">
	.st0{fill:#FFFFFF;}
	.st1{fill:none;}
</style>
<g>
	<polygon class="st0" points="-358.7,273.1 -379.8,258.8 -400.9,273.1 -379.8,287.5 	"/>
	<path class="st0" d="M-381.1,292.2l-21.5-14.7V304h45.7v-26.5l-21.5,14.7C-378.9,292.4-380,292.9-381.1,292.2z"/>
	<g>
		<polygon class="st1" points="-358.7,273.1 -379.8,258.8 -400.9,273.1 -379.8,287.5 		"/>
		<path class="st1" d="M-381.1,292.2l-21.5-14.7V304h45.7v-26.5l-21.5,14.7C-378.9,292.4-380,292.9-381.1,292.2z"/>
		<path class="st0" d="M-379.8,232.2c-27,0-48.9,21.9-48.9,48.9c0,27,21.9,48.9,48.9,48.9s48.9-21.9,48.9-48.9
			C-330.9,254.1-352.8,232.2-379.8,232.2z M-352.4,273.1v33.1c0,1.3-1,2.3-2.3,2.3h-50.2c-1.3,0-2.3-1-2.3-2.3v-33.1
			c0,0,0-0.1,0-0.1c0-0.7,0.4-1.4,1-1.8l25.1-17.1c0.8-0.5,1.8-0.5,2.6,0l25.1,17.1c0.6,0.4,1,1.1,1,1.8
			C-352.4,273.1-352.4,273.1-352.4,273.1z"/>
		<path d="M-353.4,268.3l-25.1-17.1c-0.8-0.5-1.8-0.5-2.6,0l-25.1,17.1c-0.6,0.4-1,1.1-1,1.8c0,0,0,0.1,0,0.1v33.1
			c0,1.3,1,2.3,2.3,2.3h50.2c1.3,0,2.3-1,2.3-2.3v-33.1c0,0,0-0.1,0-0.1C-352.4,269.3-352.8,268.7-353.4,268.3z M-379.8,255.8
			l21.1,14.4l-21.1,14.4l-21.1-14.4L-379.8,255.8z M-357,301h-45.7v-26.5l21.5,14.7c1.1,0.7,2.2,0.3,2.6,0l21.5-14.7V301z"/>
	</g>
</g>
</svg>
