<?xml version="1.0" encoding="utf-8"?>
<!-- Generator: Adobe Illustrator 19.0.0, SVG Export Plug-In . SVG Version: 6.00 Build 0)  -->
<!DOCTYPE svg PUBLIC "-//W3C//DTD SVG 1.1//EN" "http://www.w3.org/Graphics/SVG/1.1/DTD/svg11.dtd">
<svg version="1.1" id="Layer_1" xmlns="http://www.w3.org/2000/svg" xmlns:xlink="http://www.w3.org/1999/xlink" x="0px" y="0px"
	 viewBox="0 0 21.9 14.1" style="enable-background:new 0 0 21.9 14.1;" xml:space="preserve">
<style type="text/css">
	.st0{fill:#FFFFFF;}
</style>
<path id="XMLID_1_" class="st0" d="M19.5,0c-0.7,0-1.3,0.3-1.7,0.8l0,0l-6.9,7.5L4.1,0.8l0,0C3.6,0.3,3,0,2.3,0C1.1,0,0,1.1,0,2.3
	C0,3,0.2,3.5,0.6,3.9l0,0l8.6,9.4c0.4,0.5,1.1,0.8,1.7,0.8s1.3-0.3,1.7-0.8l8.6-9.4l0,0c0.4-0.4,0.6-1,0.6-1.6
	C21.9,1.1,20.8,0,19.5,0z"/>
</svg>
