<?xml version="1.0" encoding="utf-8"?>
<!-- Generator: Adobe Illustrator 19.0.0, SVG Export Plug-In . SVG Version: 6.00 Build 0)  -->
<!DOCTYPE svg PUBLIC "-//W3C//DTD SVG 1.1//EN" "http://www.w3.org/Graphics/SVG/1.1/DTD/svg11.dtd">
<svg version="1.1" id="Capa_1" xmlns="http://www.w3.org/2000/svg" xmlns:xlink="http://www.w3.org/1999/xlink" x="0px" y="0px"
	 viewBox="-348 150 262 262" style="enable-background:new -348 150 262 262;" xml:space="preserve">
<style type="text/css">
	.st0{fill:#FFFFFF;}
</style>
<path class="st0" d="M-217,150c-72.2,0-131,58.8-131,131s58.8,131,131,131s131-58.8,131-131S-144.8,150-217,150z M-156.2,327.7
	c-1.2,3.2-4.3,5.2-7.5,5.2c-0.9,0-1.9-0.2-2.8-0.5c-23.5-8.8-50.6-13.5-78.1-13.5c-0.1,0-0.2,0-0.2,0c-12.7,0-25.4,1-37.6,2.9
	c-4.4,0.7-8.5-2.3-9.2-6.6c-0.7-4.4,2.3-8.5,6.6-9.2c13-2.1,26.5-3.1,40.1-3.1c0.1,0,0.2,0,0.3,0c29.5,0,58.4,5,83.7,14.5
	C-156.8,319-154.7,323.6-156.2,327.7z M-144,294.1c-1.4,3.6-4.8,5.8-8.4,5.8c-1,0-2.1-0.2-3.2-0.6c-26.9-10.1-57.8-15.4-89.4-15.4
	c-0.1,0-0.2,0-0.3,0c-14.6,0-29,1.1-43,3.3c-4.9,0.8-9.5-2.6-10.3-7.5c-0.8-4.9,2.6-9.5,7.5-10.3c15-2.4,30.5-3.6,46.1-3.6
	c33.7,0,66.8,5.8,95.7,16.6C-144.6,284.2-142.2,289.4-144,294.1z M-130.5,258.6c-1.5,4-5.3,6.5-9.4,6.5c-1.2,0-2.3-0.2-3.5-0.6
	c-30.3-11.3-65.1-17.3-100.6-17.4c-0.1,0-0.2,0-0.3,0c-16.4,0-32.7,1.3-48.4,3.8c-5.5,0.9-10.6-2.9-11.4-8.3
	c-0.9-5.5,2.9-10.6,8.3-11.4c16.8-2.7,34.1-4,51.5-4c0.1,0,0.2,0,0.3,0c37.9,0,75.1,6.5,107.5,18.6
	C-131.2,247.7-128.5,253.4-130.5,258.6z"/>
</svg>
