<?xml version="1.0" encoding="utf-8"?>
<!-- Generator: Adobe Illustrator 19.0.0, SVG Export Plug-In . SVG Version: 6.00 Build 0)  -->
<!DOCTYPE svg PUBLIC "-//W3C//DTD SVG 1.1//EN" "http://www.w3.org/Graphics/SVG/1.1/DTD/svg11.dtd">
<svg version="1.1" id="Capa_1" xmlns="http://www.w3.org/2000/svg" xmlns:xlink="http://www.w3.org/1999/xlink" x="0px" y="0px"
	 viewBox="-430 232.2 97.8 97.8" style="enable-background:new -430 232.2 97.8 97.8;" xml:space="preserve">
<style type="text/css">
	.st0{fill:#FFFFFF;}
</style>
<g>
	<g>
		<polygon class="st0" points="-404.3,284.7 -400.4,284.7 -400.4,305.7 -396.8,305.7 -396.8,284.7 -392.8,284.7 -392.8,281.3 
			-404.3,281.3 		"/>
		<path class="st0" d="M-373.3,287.3c-1.2,0-2.3,0.7-3.4,2v-8h-3.3v24.4h3.3v-1.8c1.1,1.4,2.2,2,3.4,2c1.3,0,2.2-0.7,2.6-2
			c0.2-0.8,0.3-2,0.3-3.7V293c0-1.7-0.1-2.9-0.3-3.7C-371.1,288-372,287.3-373.3,287.3z M-373.7,300.5c0,1.6-0.5,2.5-1.4,2.5
			c-0.5,0-1.1-0.3-1.6-0.8v-11.1c0.6-0.5,1.1-0.8,1.6-0.8c1,0,1.4,0.8,1.4,2.5V300.5z"/>
		<path class="st0" d="M-386.2,301.4c-0.7,1-1.4,1.5-2.1,1.5c-0.4,0-0.7-0.3-0.8-0.8c0-0.1,0-0.5,0-1.3v-13.4h-3.3v14.4
			c0,1.3,0.1,2.2,0.3,2.7c0.3,0.9,1.1,1.4,2.1,1.4c1.2,0,2.5-0.7,3.8-2.2v2h3.3v-18.2h-3.3V301.4z"/>
		<path class="st0" d="M-383.3,270.7c1.1,0,1.6-0.9,1.6-2.6v-7.7c0-1.7-0.5-2.5-1.6-2.5c-1.1,0-1.6,0.8-1.6,2.5v7.7
			C-384.9,269.9-384.4,270.7-383.3,270.7z"/>
		<path class="st0" d="M-381.1,232.2c-27,0-48.9,21.9-48.9,48.9s21.9,48.9,48.9,48.9c27,0,48.9-21.9,48.9-48.9
			S-354.1,232.2-381.1,232.2z M-375.7,255.1h3.3v13.5c0,0.8,0,1.2,0,1.3c0.1,0.5,0.3,0.8,0.8,0.8c0.7,0,1.4-0.5,2.1-1.6v-14h3.3
			v18.4h-3.3v-2c-1.3,1.5-2.6,2.3-3.8,2.3c-1.1,0-1.8-0.4-2.1-1.4c-0.2-0.6-0.3-1.4-0.3-2.7V255.1L-375.7,255.1z M-388.3,261.1
			c0-2,0.3-3.4,1-4.3c0.9-1.3,2.2-1.9,3.9-1.9c1.7,0,3,0.6,3.9,1.9c0.7,0.9,1,2.4,1,4.3v6.4c0,2-0.3,3.4-1,4.3
			c-0.9,1.3-2.2,1.9-3.9,1.9c-1.7,0-3-0.6-3.9-1.9c-0.7-0.9-1-2.4-1-4.3V261.1z M-397.2,248.8l2.6,9.7l2.5-9.7h3.7l-4.4,14.7v10
			h-3.7v-10c-0.3-1.8-1.1-4.4-2.3-7.8c-0.8-2.3-1.6-4.6-2.4-6.9C-401.1,248.8-397.2,248.8-397.2,248.8z M-354.8,307.3
			c-0.7,2.9-3,5-5.9,5.4c-6.8,0.8-13.6,0.8-20.4,0.8c-6.8,0-13.7,0-20.4-0.8c-2.9-0.3-5.2-2.5-5.9-5.4c-1-4.1-1-8.6-1-12.9
			c0-4.3,0-8.8,1-12.9c0.7-2.9,3-5,5.9-5.4c6.8-0.8,13.6-0.8,20.4-0.8c6.8,0,13.7,0,20.4,0.8c2.9,0.3,5.2,2.5,5.9,5.4
			c0.9,4.1,0.9,8.6,0.9,12.9C-353.9,298.7-353.9,303.2-354.8,307.3z"/>
		<path class="st0" d="M-362.8,287.3c-1.7,0-3,0.6-3.9,1.9c-0.7,0.9-1,2.3-1,4.3v6.4c0,1.9,0.4,3.4,1.1,4.3c1,1.2,2.3,1.9,4,1.9
			c1.7,0,3.1-0.7,4-2c0.4-0.6,0.7-1.2,0.8-2c0-0.3,0.1-1.1,0.1-2.1v-0.5h-3.4c0,1.3,0,2.1-0.1,2.2c-0.2,0.9-0.7,1.3-1.5,1.3
			c-1.1,0-1.7-0.8-1.7-2.5v-3.2h6.6v-3.8c0-1.9-0.3-3.4-1-4.3C-359.9,287.9-361.2,287.3-362.8,287.3z M-361.2,294.5h-3.3v-1.7
			c0-1.7,0.6-2.5,1.7-2.5c1.1,0,1.6,0.8,1.6,2.5V294.5z"/>
	</g>
</g>
</svg>
