<?xml version="1.0" encoding="utf-8"?>
<!-- Generator: Adobe Illustrator 19.0.0, SVG Export Plug-In . SVG Version: 6.00 Build 0)  -->
<!DOCTYPE svg PUBLIC "-//W3C//DTD SVG 1.1//EN" "http://www.w3.org/Graphics/SVG/1.1/DTD/svg11.dtd">
<svg version="1.1" id="Layer_1" xmlns="http://www.w3.org/2000/svg" xmlns:xlink="http://www.w3.org/1999/xlink" x="0px" y="0px"
	 viewBox="0 0 187.9 21.1" style="enable-background:new 0 0 187.9 21.1;" xml:space="preserve">
<style type="text/css">
	.st0{fill:#FFFFFF;}
</style>
<g id="XMLID_2_">
	<path id="XMLID_3_" class="st0" d="M10.2,14.2c0,0.1,0,0.1-0.1,0.2c0,0-0.1,0.1-0.1,0.1c0,0,0,0-0.1,0c0,0,0,0-0.1,0
		s-0.1,0.1-0.2,0.2s-0.2,0.2-0.3,0.2c0,0,0,0-0.1,0c0,0-0.1,0-0.1,0c0-0.2,0-0.3-0.1-0.4c0,0,0,0-0.1,0.1c0,0-0.1,0.1-0.1,0.1
		c-0.1,0-0.1,0-0.1,0c0,0,0,0,0-0.1s0-0.1,0-0.1c0,0-0.1,0-0.2,0c0,0-0.1,0-0.2,0.1s-0.1,0.1-0.1,0.1c0,0,0.1,0.1,0.1,0.1l0.1,0
		c0.1,0,0.1,0,0.2,0l0,0.1c0,0.1,0.1,0.1,0.1,0.1c0,0,0.1,0,0.1-0.1c0,0,0-0.1,0-0.1C9,14.7,9,14.8,9,14.8c0,0,0,0.1-0.1,0.1
		c-0.1,0.1-0.1,0.1-0.2,0.1c-0.1,0-0.1,0-0.1,0c0,0-0.1,0-0.1,0c0,0,0,0-0.1,0c0,0,0,0,0,0c0,0,0,0-0.1,0c0,0-0.1,0-0.1,0
		c-0.1,0-0.1,0-0.1-0.1S8,14.7,8,14.7c-0.1,0-0.2,0.1-0.3,0.2c-0.2,0-0.5,0.1-0.8,0.2c0,0,0,0.1-0.1,0.2c0,0.1-0.1,0.2-0.1,0.2
		c0,0-0.1,0-0.1-0.1c0,0-0.1-0.1-0.1-0.1c0,0-0.1,0-0.1,0.1c-0.1,0.1-0.1,0.1-0.1,0.1c-0.2-0.1-0.4-0.3-0.5-0.4
		c-0.1,0.1-0.2,0.2-0.3,0.2c0,0-0.1,0-0.2-0.1C5.1,15.3,5,15.2,5,15.2c0,0-0.1,0-0.1,0.1c-0.1,0.1-0.2,0.1-0.2,0.1c0,0-0.1,0-0.2,0
		c-0.1,0-0.2,0-0.2,0H4.1c0-0.1,0-0.2,0-0.3s-0.1,0-0.2,0c-0.1,0-0.1,0-0.2,0.1c0,0-0.1,0.1-0.1,0.1s-0.1,0-0.1,0s0,0,0-0.1
		c0,0,0,0,0-0.1s0,0-0.1,0c0,0,0,0-0.1,0c0,0,0,0-0.1,0c-0.1,0-0.1,0-0.1,0c0,0-0.1,0-0.1-0.1c0-0.1-0.1-0.1-0.1-0.1
		c0,0,0,0-0.1-0.1c-0.1,0-0.1-0.1-0.1-0.1c0,0,0-0.2-0.1-0.4c0,0,0,0,0,0c0,0,0,0,0,0c0,0,0,0,0,0v-0.6c0,0,0-0.1,0.1-0.1
		c0-0.1,0.1-0.1,0.1-0.1c0,0,0-0.1,0-0.2s0-0.2,0-0.3c0,0,0,0,0.1-0.1s0.1-0.1,0.1-0.2c0-0.1,0-0.1,0-0.2v-0.8c0,0,0-0.2,0-0.3
		c0-0.2,0-0.3,0-0.4c0,0,0-0.2,0-0.7c0,0,0-0.1,0-0.2c0-0.2,0-0.3,0-0.3c0-0.2,0-0.4-0.1-0.6C2.7,9,2.7,8.9,2.7,8.9
		c0-0.1,0-0.1,0.1-0.2c0,0,0-0.1-0.1-0.1C2.7,8.5,2.7,8.5,2.6,8.4c0,0,0-0.1,0-0.2c0-0.1,0-0.2,0-0.2L2.5,5.5c0,0,0-0.1,0-0.1
		c0-0.1,0-0.1,0-0.1V4.7c0,0,0-0.1,0-0.2c0-0.1,0-0.2,0-0.2c0,0,0-0.1,0.1-0.1c0-0.1,0.1-0.1,0.2-0.2s0.1-0.1,0.2-0.2
		C2.9,3.6,3,3.6,3.1,3.5c0.1-0.1,0.1-0.1,0.1-0.1c0-0.1,0.1-0.1,0.2-0.2L3.8,3C3.8,3,3.9,3,4,3.1c0.1,0.1,0.2,0.2,0.2,0.3
		c0.1,0.1,0.1,0.2,0.1,0.2c0.2,0.2,0.3,0.3,0.3,0.3c0,0,0,0.1,0,0.1c0,0.1,0,0.1,0,0.2c0.1,0.2,0.1,0.3,0.2,0.5
		c0,0.1,0.1,0.3,0.1,0.3c0,0.1,0,0.2,0,0.3c0,0.1,0,0.2,0,0.3c0.2,0.2,0.2,0.5,0.2,1c0,0,0,0,0,0.1c0,0,0,0.1,0,0.1c0,0,0,0.1,0,0.1
		c0,0.2,0,0.3,0,0.4c0,0.1,0,0.2,0,0.3s0,0.3,0,0.6c0,0.2,0,0.3,0.1,0.4c0,0.1,0.1,0.2,0.1,0.2c0,0,0,0.1,0,0.1v0.7c0,0,0,0.1,0,0.1
		c0,0.1,0,0.1,0,0.2c0,0,0,0.1,0.1,0.3c0.1,0.2,0.1,0.3,0.1,0.5c0,0.1,0,0.1,0,0.2S5.4,10.9,5.4,11c0,0.1-0.1,0.2-0.1,0.3
		c0.1,0.1,0.1,0.3,0,0.6c0,0.4,0,0.6,0,0.6c0,0.4,0.1,0.6,0.4,0.6c0,0,0.1,0,0.1-0.1S6,12.9,6,12.9c0,0,0.1,0,0.1,0
		c0.1,0,0.1,0,0.1,0c0,0,0.1,0,0.2-0.1c0.1,0,0.1-0.1,0.1-0.1c0,0,0,0,0.1,0.1c0,0,0.1,0.1,0.1,0.1s0,0,0.1,0c0,0,0.1,0,0.1,0
		s0.1,0,0.3,0c0.2,0,0.3,0,0.3,0s0.1,0,0.1,0c0.1,0,0.1,0,0.2,0c0,0,0.1,0,0.1-0.1C8,12.8,8,12.8,8,12.8h0.6c0,0,0.1,0,0.1-0.1
		c0.1,0,0.1-0.1,0.1-0.1c0,0,0,0,0,0c0,0,0,0,0.1,0c0,0,0,0,0.1,0c0,0,0,0,0.1,0c0,0,0.1,0,0.1,0s0.1,0,0.1,0.1c0,0,0.1,0.1,0.1,0.1
		c0,0,0,0.1,0,0.1c0.1,0.1,0.3,0.2,0.5,0.2c0,0,0,0.1,0.1,0.2s0.1,0.2,0.1,0.2s0,0.1,0,0.2c0,0,0,0.1,0.1,0.1
		C10.2,14.1,10.2,14.1,10.2,14.2z M6,15.1H5.9c0,0,0,0,0,0c0,0,0,0,0,0s0,0,0,0H6L6,15.1C6,15.2,6,15.1,6,15.1z M6.7,15.1L6.7,15.1
		c-0.1,0-0.1,0-0.1,0.1c0,0,0,0-0.1,0.1h0.1C6.6,15.2,6.6,15.1,6.7,15.1C6.6,15.1,6.6,15.2,6.7,15.1C6.6,15.2,6.7,15.2,6.7,15.1
		C6.7,15.2,6.7,15.2,6.7,15.1C6.7,15.1,6.7,15.1,6.7,15.1z"/>
	<path id="XMLID_7_" class="st0" d="M23.4,13.1c-0.1,0.1-0.1,0.2-0.1,0.3c0,0.1,0,0.2,0,0.3s0,0.2,0,0.3s0,0.2,0,0.3
		c0,0,0,0-0.1,0.1c0,0-0.1,0.1-0.1,0.1c0,0,0,0.1-0.1,0.2c0,0.1-0.1,0.2-0.1,0.2c0,0-0.1,0.1-0.1,0.2c-0.1,0.1-0.1,0.1-0.2,0.1h0
		c-0.1,0-0.1,0-0.1-0.1c0,0,0,0-0.1,0c0,0,0,0-0.1,0c-0.1,0-0.3-0.1-0.7-0.3c0,0,0,0-0.1-0.1c0,0,0,0-0.1,0c-0.1,0-0.1,0-0.2,0.1
		c-0.1,0-0.2-0.1-0.3-0.2C21,14.3,21,14.2,20.9,14c-0.1-0.2-0.1-0.5-0.2-1l-0.1-0.7c-0.1-0.1-0.3-0.1-0.4-0.1c0,0,0,0-0.1,0
		c0,0,0,0-0.1,0c0,0-0.1,0-0.1,0c-0.1,0-0.1,0-0.1,0c0,0-0.1,0-0.2,0.1s-0.2,0.1-0.2,0.1c0,0,0,0-0.1-0.1c0,0-0.1-0.1-0.2-0.1
		c-0.1,0-0.2-0.1-0.3-0.1c-0.1,0-0.2,0-0.3,0.1c-0.1,0-0.1,0.1-0.1,0.1c0,0-0.1,0-0.1-0.1c-0.1,0-0.1-0.1-0.1-0.1L18,12.3
		c-0.1,0-0.2,0.1-0.3,0.1c0,0-0.1,0-0.2-0.1c-0.1-0.1-0.2-0.1-0.3-0.1c-0.2,0-0.4,0.1-0.5,0.2c-0.1,0.1-0.3,0.3-0.3,0.5
		c-0.1,0.2-0.1,0.4-0.2,0.7c-0.1,0.2-0.2,0.4-0.3,0.6c-0.1,0.2-0.3,0.3-0.4,0.3c0,0,0,0,0,0.1c0,0,0,0.1-0.1,0.1c0,0-0.1,0-0.1,0
		c0,0-0.1,0-0.1,0c0,0.1-0.1,0.2-0.2,0.3c-0.3,0-0.5-0.1-0.6-0.1c-0.1,0-0.1-0.1-0.1-0.1c0,0,0-0.1-0.1-0.1c0,0-0.1,0-0.2,0
		c0,0-0.1,0.1-0.2,0.2c-0.1-0.1-0.1-0.3-0.1-0.7s-0.1-0.5-0.1-0.6l-0.1,0l0,0c0,0,0,0,0,0c-0.1-0.1-0.1-0.2-0.1-0.2
		c0-0.1,0-0.2,0.1-0.3c0.1-0.1,0.1-0.2,0.1-0.2c0.1-0.1,0.2-0.2,0.2-0.2c0.1-0.3,0.3-0.5,0.5-0.8c0.2-0.3,0.3-0.5,0.4-0.6
		c0.1-0.2,0.1-0.4,0.2-0.7c0.1-0.1,0.2-0.2,0.2-0.3c0,0,0-0.1,0-0.2s0-0.2,0-0.2C15,9.4,15,9.1,15,9c0.2-0.4,0.4-0.8,0.7-1.2
		c0,0,0-0.1,0.1-0.2c0-0.1,0.1-0.2,0.1-0.2c0,0,0.1-0.1,0.2-0.2c0.1-0.1,0.2-0.2,0.3-0.2c0-0.1,0.1-0.3,0.2-0.5
		c0.1-0.2,0.2-0.5,0.3-0.6c0.1-0.2,0.2-0.3,0.3-0.4c0-0.2,0-0.3,0.1-0.3c0.2-0.2,0.3-0.4,0.5-0.6c0.2-0.2,0.3-0.4,0.3-0.5
		c0.1-0.1,0.2-0.2,0.3-0.2c0.2-0.1,0.4-0.1,0.6-0.1c0,0,0.1,0,0.2,0c0.1,0,0.1,0,0.2,0s0.1,0,0.1,0s0.1,0,0.2,0c0,0,0.1,0,0.2,0.1
		S20,4,20,4c0.1,0,0.2,0.1,0.3,0.2c0,0,0,0.1,0.1,0.1c0.1,0.1,0.1,0.1,0.1,0.2c0,0.1,0.1,0.1,0.1,0.1c0,0,0,0,0.1,0.1
		c0,0,0.1,0.1,0.1,0.1c0,0,0.1,0,0.1,0.1c0,0,0.1,0.1,0.1,0.1s0,0.1,0.1,0.1c0,0,0,0.1,0,0.1c0,0,0,0.1,0,0.1
		c0.3,0.4,0.5,0.9,0.6,1.4c0,0,0,0.1,0.1,0.2S22,7,22,7c0,0.2,0,0.5,0.1,0.7c0.1,0.2,0.2,0.5,0.3,0.8c0.1,0.3,0.2,0.5,0.2,0.6
		c0,0,0,0.1,0.1,0.2c0,0.1,0.1,0.2,0.1,0.3c0,0,0,0.1,0,0.1c0,0.1,0,0.1,0,0.2c0,0.1,0,0.1,0,0.1c0.2,0.1,0.2,0.3,0.2,0.4
		c0,0.1,0,0.1,0,0.3c0,0.1-0.1,0.2-0.1,0.4l0,0.2c0,0,0,0.1,0.1,0.1c0,0.1,0.1,0.1,0.1,0.1c0,0.1,0,0.2,0.1,0.3s0.1,0.3,0.1,0.4
		s0,0.2,0,0.3c0,0.1,0,0.2,0,0.2c-0.1,0.1,0,0.2,0,0.3S23.4,13.1,23.4,13.1z M19.7,9.3c0-0.2,0-0.4-0.1-0.5c0-0.1-0.1-0.3-0.2-0.5
		c-0.1-0.2-0.1-0.4-0.2-0.7h-0.2c-0.2,0.3-0.4,0.5-0.6,0.7c0,0.1-0.2,0.3-0.4,0.6c-0.2,0.2-0.3,0.4-0.3,0.6c0,0.1,0,0.2,0.1,0.2
		c0,0,0.1,0,0.1,0c0.1,0,0.1,0,0.2,0c0.1,0,0.1,0,0.2,0c0.1,0,0.2,0,0.2,0c0.1,0,0.1,0,0.1-0.1s0,0,0.1,0c0,0,0.1,0,0.1,0
		c0,0,0.1,0,0.1,0c0.1,0,0.2,0,0.4-0.1C19.7,9.5,19.7,9.4,19.7,9.3z"/>
	<path id="XMLID_10_" class="st0" d="M48.5,10v0.9c0,0,0,0.1-0.1,0.1c0,0,0,0,0,0.1c0,0,0,0,0,0.1c0,0,0,0,0,0.1v1.2
		c0,0,0,0.1-0.1,0.3c-0.1,0.2-0.1,0.3-0.1,0.3c0,0,0,0,0,0.1c0,0.1,0,0.1,0,0.2c0,0.1,0,0.1-0.1,0.1c0,0,0.1,0,0.1,0.1
		c0.1,0,0.1,0.1,0.1,0.1c0,0.1,0,0.1,0,0.2c0,0.1,0,0.2,0,0.3c0,0.1,0,0.2,0,0.2c0,0.1,0,0.1,0,0.2c0,0.1-0.1,0.1-0.1,0.1
		c0,0,0,0-0.1,0c0,0-0.1,0-0.1,0c0.1,0.1,0.1,0.2,0.1,0.2c0,0,0,0,0,0.1c0,0,0,0,0,0.1H48C48,15,48,14.9,48,14.9c0,0,0,0,0-0.1
		c0,0,0-0.1,0.1-0.1l0,0c0,0,0-0.1-0.1-0.1c0,0-0.1,0-0.1,0.1s0,0.1,0,0.1c0,0,0,0.1,0.1,0.1c-0.1,0.1-0.1,0.2-0.2,0.2c0,0,0,0,0,0
		s0,0,0,0c-0.1,0-0.2,0-0.2,0.1c0,0,0,0,0,0c0,0,0,0,0,0s0,0,0,0s0,0,0,0c0,0,0,0,0,0c0,0,0,0,0-0.1s0,0,0-0.1c0,0,0-0.1,0-0.1
		c-0.1,0-0.1,0-0.1,0c0,0-0.1,0-0.2,0c-0.1,0-0.1,0-0.2,0c0,0,0,0-0.1,0c0,0,0,0-0.1,0c0,0-0.1,0-0.2,0.1h-0.1c0,0,0-0.1,0-0.2
		c0-0.1,0-0.2,0-0.2c0-0.1,0-0.1-0.1-0.2c0-0.1-0.1-0.1-0.2-0.1c0,0-0.1,0-0.2,0.1c0,0,0,0-0.1,0c-0.1-0.4-0.1-0.6-0.1-0.8
		c0,0,0,0,0,0s0,0,0,0c0,0,0,0,0-0.1c0-0.1,0-0.1,0-0.1c0,0,0.1-0.1,0.1-0.2c0-0.1,0.1-0.2,0.1-0.2c0,0,0,0-0.1-0.1
		c0-0.1-0.1-0.1-0.1-0.1c0,0,0-0.1,0.1-0.2s0.1-0.2,0.1-0.2c0-0.1,0-0.2,0-0.4c0-0.2,0-0.3,0-0.4c0,0,0,0,0-0.1c0,0,0-0.1,0-0.1
		c0,0,0,0,0-0.1c0-0.1,0-0.1,0-0.2c0-0.1,0-0.2,0-0.3c0-0.2,0-0.2,0-0.2v-1c0,0-0.1-0.2-0.2-0.4h-0.1c0,0,0,0.1-0.1,0.2
		s0,0.1-0.1,0.2c-0.1,0-0.2,0.1-0.2,0.1c0,0,0,0.1-0.1,0.2s0,0.1-0.1,0.2c0,0-0.1,0-0.3,0.1c-0.1,0.1-0.2,0.2-0.2,0.2
		c-0.4,0.4-0.7,0.6-0.7,0.6c0,0-0.1,0-0.2-0.1s-0.1-0.1-0.2-0.1c-0.1,0-0.1,0-0.1,0.1c0,0-0.1,0-0.2,0.1c-0.1,0-0.1,0.1-0.2,0.1
		c-0.1,0-0.1,0-0.2-0.1c-0.1,0-0.1-0.1-0.2-0.1l-0.1-0.1c0,0,0,0,0,0c0,0,0,0,0,0c0,0-0.1,0-0.1,0c-0.1,0-0.1,0-0.1-0.1
		c-0.1,0-0.2-0.1-0.4-0.1c-0.1,0-0.2-0.2-0.4-0.4C41.5,10,41.2,9.8,41,9.6c-0.2-0.2-0.3-0.3-0.4-0.3c-0.1,0-0.2,0.1-0.3,0.3l0,0.1
		c0,0,0,0,0.1,0s0.1,0,0.1-0.1c0,0,0,0,0,0c0,0,0,0,0,0.1c0,0,0,0.1-0.1,0.3c-0.1,0.2-0.1,0.3-0.1,0.4c-0.1,0-0.2,0.1-0.2,0.1
		c0,0,0,0.1,0.1,0.2c0.1,0.1,0.1,0.1,0.1,0.2c0,0.1,0,0.2-0.1,0.3c0,0,0-0.1-0.1-0.2c-0.1,0-0.1,0.1-0.2,0.2h-0.1c0,0,0,0,0-0.1
		c0,0,0,0,0-0.1c-0.1,0.1-0.1,0.2-0.1,0.3c0,0.1,0,0.2,0.1,0.3c0.1,0.1,0.1,0.1,0.2,0.1s0.1,0,0.1,0.1c0,0,0,0.1-0.1,0.1
		S40,12.1,40,12.1c0,0.1,0,0.1,0.1,0.1c0.1,0,0.1,0.1,0.1,0.2c0,0.1,0,0.1,0,0.1c0,0,0,0.1-0.1,0.1l-0.1,0c0,0.1-0.1,0.2-0.2,0.4
		v0.5l0,0c0,0,0,0,0.1,0c0,0,0.1-0.1,0.2-0.2h0.1c0,0.1,0,0.2,0,0.3h-0.1c0,0,0,0,0,0c0,0,0,0,0,0s0,0,0,0c-0.1,0.2-0.2,0.2-0.3,0.2
		c0,0-0.1,0-0.1,0s-0.1,0-0.1,0c0,0,0,0-0.1,0c0,0-0.1,0-0.1,0c-0.1,0-0.3,0-0.4-0.1s-0.2-0.1-0.2-0.1c0,0,0,0,0,0c0,0,0,0,0,0
		c0,0-0.1,0-0.2-0.1s-0.1-0.1-0.1-0.2c-0.1-0.1-0.2-0.1-0.2-0.2v-1.1c0,0,0-0.1,0.1-0.2c0-0.1,0.1-0.2,0.1-0.2l0.2-1.2
		c0,0,0-0.1,0-0.2c0-0.2,0-0.3,0-0.3c0-0.1,0.1-0.2,0.1-0.3c0-0.1,0-0.1,0-0.2s0-0.1,0-0.2c0-0.1,0-0.1,0-0.2c0,0,0-0.1,0-0.2
		c0-0.1,0-0.2,0-0.2c0-0.1,0-0.1,0.1-0.1c0-0.2,0-0.4,0.1-0.6s0.1-0.5,0.2-0.8c0.1-0.3,0.2-0.5,0.2-0.6c0-0.1,0.1-0.1,0.1-0.1
		c0.1,0,0.1,0,0.2,0c0,0,0.1-0.1,0.2-0.2c0.1-0.1,0.1-0.1,0.2-0.2L40,6.2c0,0,0,0,0.1,0s0,0,0.1,0c0.3,0.3,0.6,0.4,0.7,0.5
		c0,0,0.1,0,0.1,0s0.1,0,0.1,0c0,0.1,0.2,0.2,0.3,0.3s0.3,0.1,0.3,0.1c0.3,0.3,0.4,0.5,0.5,0.6c0.1,0,0.2,0,0.3,0.1
		c0.1,0.1,0.1,0.2,0.2,0.2c0,0.1,0.1,0.2,0.2,0.2c0.1,0.1,0.1,0.1,0.2,0.1c0.1,0,0.1,0,0.2-0.1s0.2-0.1,0.3-0.1c0,0,0,0,0-0.1
		c0.1,0,0.2-0.1,0.2-0.1c0-0.1,0-0.2,0.2-0.3c0.1-0.1,0.2-0.2,0.2-0.2c0.1-0.1,0.2-0.2,0.4-0.4c0.1-0.2,0.2-0.3,0.2-0.3
		c0,0,0,0,0.1-0.1S45,6.8,45,6.8c0,0,0.1-0.1,0.1-0.1l0.1-0.1c0.1-0.1,0.2-0.2,0.3-0.3s0.2-0.2,0.3-0.3c0.1-0.1,0.2-0.2,0.3-0.3
		c0.1-0.1,0.1-0.1,0.2-0.1c0.1,0,0.2,0,0.3,0.1c0,0.1,0.1,0.1,0.2,0.1s0.2,0,0.2,0c0,0,0,0,0.1,0s0.1,0,0.1,0c0,0,0.1,0.1,0.2,0.2
		c0.1,0.1,0.2,0.2,0.2,0.2c0,0,0.1,0.1,0.2,0.2c0.1,0.1,0.1,0.2,0.2,0.3s0,0.2,0,0.4c0,0.1,0.1,0.3,0.2,0.5c0,0.1,0,0.1,0,0.2
		c0,0.1,0,0.2,0,0.2c0,0.1,0,0.1,0.1,0.2c0,0.1,0.1,0.2,0.1,0.2c0,0.1,0,0.1,0,0.2c0,0.1,0,0.2,0,0.2s0,0.1,0,0.2s0,0.1,0,0.1
		s0,0,0,0v0c0,0.1,0,0.2,0,0.3c0,0.1,0,0.2,0,0.2c0,0,0,0.1,0.1,0.1S48.5,10,48.5,10z"/>
	<path id="XMLID_12_" class="st0" d="M61.1,6.2c0,0.1,0,0.3-0.1,0.4C61,6.9,60.9,7,60.9,7.2v0.8c-0.1,0-0.1,0-0.2,0s-0.1,0-0.1,0
		c0,0,0,0,0,0c0,0,0,0,0,0s0,0,0,0c0,0,0,0,0,0s0,0,0,0c0,0,0,0,0,0c0,0,0,0,0,0.1c0,0,0,0,0,0c0,0.1,0,0.1,0.1,0.1s0.1,0,0.1,0v0.9
		c0,0,0,0.1-0.1,0.1s0,0.1,0,0.1s0,0.1,0.1,0.1c0.1,0.1,0.1,0.1,0.1,0.2c0,0-0.1,0.1-0.2,0.2c-0.1,0.1-0.2,0.2-0.2,0.2
		c0,0.1,0,0.1,0.1,0.2c0,0.1,0.1,0.2,0.1,0.2c0,0.1,0,0.1,0,0.1v0.1c-0.2,0-0.3,0-0.3,0.1c0,0,0,0.1,0.1,0.2
		c0.1,0.2,0.1,0.3,0.1,0.4c0,0.1,0,0.1-0.1,0.2c-0.1,0.1-0.2,0.1-0.2,0.2c0,0.1,0,0.2,0,0.3c0,0.1,0,0.2,0,0.2
		c-0.1,0-0.2,0.1-0.2,0.2c0,0.1-0.1,0.2-0.1,0.3s0,0.2-0.1,0.2c0,0.1-0.1,0.1-0.2,0.1c0,0,0,0,0,0c0,0,0,0,0,0
		c-0.1,0-0.1,0.1-0.2,0.2c-0.1,0.1-0.1,0.2-0.2,0.4c-0.1,0.1-0.1,0.2-0.2,0.3h-0.1c0-0.1-0.1-0.1-0.1-0.1c0,0,0,0-0.1,0
		c0,0-0.1,0-0.1,0c0.1,0.1,0.1,0.1,0.1,0.2c0,0.1,0,0.1-0.1,0.2c0,0,0,0,0,0c0,0,0,0,0-0.1s0-0.1,0-0.1h-0.1c0,0-0.1,0-0.1,0.1
		c-0.1,0-0.1,0-0.2,0c-0.1,0-0.1,0-0.2,0c-0.1,0-0.1,0.1-0.1,0.1c0,0.2,0,0.3,0.1,0.3c-0.1,0.1-0.1,0.1-0.2,0.1c0,0-0.1,0-0.1,0
		c-0.1,0-0.1,0-0.1,0s0,0-0.1,0c0,0,0,0-0.1,0c0,0,0,0-0.1,0c0,0,0,0-0.1,0c0,0,0,0-0.1,0s-0.1,0.1-0.1,0.1c0,0.1-0.1,0.1-0.1,0.1
		h-0.3c0,0-0.1,0-0.1-0.1c-0.1-0.1-0.1-0.1-0.1-0.1s0,0-0.1,0s0,0-0.1,0s0,0-0.1,0c0,0,0,0,0,0c0,0.1-0.1,0.2-0.2,0.3
		c-0.1,0.1-0.2,0.2-0.4,0.2c-0.1,0-0.1,0-0.1-0.1c0,0,0.1,0,0.2-0.1s0.1-0.1,0.1-0.1c0,0,0-0.1,0-0.1c0,0-0.1-0.1-0.1-0.1
		c-0.1,0-0.2,0-0.3,0.1c-0.1,0.1-0.1,0.2,0,0.2H55c0,0,0,0-0.1,0c0,0,0,0-0.1,0c0,0-0.1,0-0.1,0c-0.1,0-0.1,0-0.1,0
		c0,0-0.1,0-0.1-0.1c-0.1-0.1-0.1-0.1-0.2-0.1c0,0,0,0-0.1,0c0,0,0,0-0.1,0c0,0-0.1,0-0.1,0c0,0,0,0,0-0.1s0-0.1,0-0.1
		c-0.1,0-0.2-0.1-0.3-0.1c-0.1-0.3-0.3-0.5-0.5-0.6c0,0,0-0.1,0-0.1c0,0,0-0.1,0-0.1c0,0,0-0.1,0-0.2c0-0.1,0-0.2,0-0.2
		c-0.1,0-0.1-0.1-0.1-0.1c0-0.1,0-0.1,0-0.2c-0.2-0.1-0.3-0.1-0.3-0.1c0,0,0,0,0-0.1c0-0.1,0-0.1,0-0.1c0,0,0,0,0-0.1
		c0,0,0,0-0.1-0.1c0,0,0,0-0.1-0.1c0,0-0.1,0-0.1,0.1c-0.1,0-0.1-0.1-0.1-0.2c0-0.1,0-0.1,0-0.2c0-0.1,0-0.2,0-0.2L52.3,12
		c0-0.1,0-0.2,0-0.3c0-0.1,0-0.2,0-0.3s0-0.1-0.1-0.1c0,0,0,0,0-0.1c0,0,0-0.1,0-0.1v-0.6c-0.2-0.3-0.3-0.5-0.3-0.6c0,0,0-0.1,0-0.1
		c0,0,0,0,0,0c0,0,0-0.1,0-0.1c0,0,0-0.1,0-0.1c0,0,0,0,0,0c0,0,0,0,0.1,0c0,0,0,0,0.1,0V9.4c-0.1-0.1-0.2-0.2-0.2-0.2
		c0-0.1,0-0.2,0-0.3c0-0.2,0-0.3,0-0.4c0-0.1,0-0.2,0-0.2c0-0.2-0.1-0.3-0.1-0.3V7.6c0.1-0.1,0.2-0.2,0.3-0.3
		c0.1-0.1,0.2-0.1,0.2-0.2c0,0,0.1-0.1,0.1-0.1c0,0,0.1-0.1,0.1-0.1c0,0,0,0,0.1,0c0,0,0,0,0,0c0,0,0,0,0,0s0.1,0,0.1-0.1
		C53,6.9,53,6.9,53,6.9s0.1,0,0.1,0c0,0,0.1,0,0.1,0c0,0,0.1,0,0.2,0c0.1,0,0.1,0,0.2,0c0.1,0,0.1,0,0.2,0.1S53.9,7,54,7.1l0.1,0.1
		c0,0.1,0.1,0.3,0.2,0.4c0.1,0.2,0.1,0.3,0.2,0.4s0.1,0.1,0.1,0.1c0,0,0,0.1-0.1,0.3c-0.1,0.1-0.1,0.3-0.2,0.3h0
		c0.1,0.2,0.1,0.4,0.2,0.6c0.1,0.2,0.1,0.4,0.2,0.6c0,0,0,0.1,0,0.1c0,0.1,0,0.1,0,0.1s0.1,0,0.2,0c0.1,0,0.1,0,0.1,0
		c0,0.1,0,0.3,0.1,0.6c0.1,0.3,0.1,0.4,0.1,0.4c0,0,0,0.1,0,0.1c0,0.1,0,0.1-0.1,0.1c0.1,0,0.2,0.2,0.3,0.4s0.1,0.4,0.1,0.6
		c0,0,0,0.1,0.1,0.1s0.1,0,0.1,0c0.1,0,0.1,0,0.1,0c0,0,0.1,0.1,0.1,0.1c0.1,0.1,0.1,0.1,0.1,0.1c0,0,0.1,0.1,0.1,0.1h0.2
		c0.3,0,0.5-0.2,0.8-0.5c0.2-0.4,0.4-0.6,0.4-0.9c0,0,0,0,0,0s0,0,0.1,0c0,0,0,0,0.1,0c0,0,0.1,0,0.1,0c0,0,0,0,0-0.1
		c0,0-0.1-0.2-0.1-0.4c0,0,0,0,0-0.1c0,0,0-0.1,0-0.1c0,0,0-0.2,0.1-0.4c0,0,0-0.1,0-0.3c0-0.2,0-0.3,0.1-0.4c0,0,0,0,0.1,0
		c0,0,0.1,0,0.1,0c0,0,0,0,0,0c0,0,0,0,0,0c-0.1,0-0.1,0-0.1,0V9.2c0,0,0,0,0-0.1s0,0,0,0c0-0.1,0-0.2,0.1-0.4C58,8.6,58,8.5,58,8.5
		c0,0,0-0.1-0.1-0.1c0-0.1-0.1-0.1-0.1-0.2c0,0,0-0.1,0-0.3c0-0.1,0-0.2,0-0.3C58,7.5,58,7.4,58,7.4c0-0.1,0-0.2,0-0.3s0-0.2,0-0.2
		c0-0.1,0.1-0.3,0.2-0.5c0.1-0.2,0.2-0.3,0.3-0.4c0,0,0,0,0.1,0c0,0,0.1,0,0.1,0c0,0,0-0.1,0.1-0.2c0,0,0,0,0-0.1s0-0.1,0-0.1
		c0-0.1,0.1-0.1,0.2-0.1c0.1,0,0.1-0.1,0.2-0.1c0.1,0,0.1-0.1,0.1-0.1c0,0,0.1,0,0.2,0c0.1,0,0.1,0,0.2-0.1c0.1,0,0.1-0.1,0.1-0.2
		c0,0.1,0.1,0.1,0.2,0.2s0.2,0.1,0.4,0.2s0.3,0.1,0.3,0.1c0,0.1,0,0.2,0.1,0.3S60.8,6,60.9,6S61,6,61,6S61.1,6.1,61.1,6.2z M52,7.8
		L52,7.8L52,7.8L52,7.8L52,7.8z M56.4,14.6L56.4,14.6c0.1-0.1,0.1-0.1,0.1-0.1C56.4,14.5,56.4,14.5,56.4,14.6z M58.1,14.3
		C58,14.3,58,14.3,58.1,14.3c-0.1,0-0.1,0-0.1-0.1C58,14.2,58,14.2,58.1,14.3c-0.1-0.1,0-0.1,0-0.1C58,14.2,58,14.2,58.1,14.3
		C58.1,14.2,58.1,14.3,58.1,14.3z M60.5,5.9L60.5,5.9L60.5,5.9L60.5,5.9L60.5,5.9z"/>
	<path id="XMLID_18_" class="st0" d="M73,4.4C73,4.5,73,4.5,73,4.4c0,0.1-0.1,0.1-0.1,0.2c0,0,0,0.1,0,0.1c0,0,0,0.1,0,0.2
		s0,0.1,0,0.2c0,0.1-0.1,0.1-0.2,0.1c0,0.1-0.1,0.1-0.1,0.3s-0.1,0.2-0.1,0.2c-0.1,0-0.1,0-0.2-0.1c0,0-0.1,0-0.1,0.1s-0.1,0-0.1,0
		c0,0-0.1,0-0.1-0.1s-0.1-0.1-0.2-0.1c0,0,0,0-0.1,0.1s-0.1,0.2-0.1,0.3s-0.1,0.2-0.1,0.2c0,0-0.1,0-0.1,0c0,0-0.1,0-0.2,0
		c0,0-0.1,0-0.2,0s-0.1,0-0.2,0s0,0,0,0c0,0,0,0,0,0c-0.1,0-0.1,0.1-0.2,0.2c0,0-0.1,0.1-0.1,0.1c0,0,0,0.1-0.1,0.3
		c0,0.1-0.1,0.2,0,0.3c0,0.1,0,0.1,0,0.1c0,0,0,0.2,0,0.4c0,0.2,0,0.4,0,0.4c0,0.3,0,0.7-0.1,1.2s-0.1,0.9-0.1,1c0,0,0,0,0,0.1
		c0,0,0,0.1,0,0.1c0,0,0,0.1-0.1,0.2c0,0.1-0.1,0.2-0.1,0.2c0,0.1,0,0.2,0,0.4s0,0.3,0,0.4c0,0,0,0,0,0c0,0,0,0,0,0.1c0,0,0,0,0,0.1
		c0,0-0.1,0-0.1,0c0,0,0,0.1,0,0.1s0,0.1,0,0.1s0,0.1-0.1,0.1c0,0-0.1,0.1-0.1,0.2c-0.1,0.1-0.1,0.1-0.1,0.2s-0.1,0.1-0.1,0.2
		c0,0,0,0,0,0.1c0,0.1,0,0.1,0,0.1c0,0,0,0.1,0,0.1s0,0.1,0,0.2c0,0,0,0-0.1,0.1c0,0-0.1,0.1-0.1,0.1s0,0.1,0,0.1
		c-0.1,0-0.1,0-0.1,0.1s0,0.1,0,0.2c0,0.1,0,0.1,0,0.1c0,0,0,0.1-0.1,0.1c0,0-0.1,0.1-0.1,0.1c-0.1,0-0.1,0.1-0.2,0.2
		s-0.2,0.2-0.3,0.2c0,0.2-0.1,0.3-0.1,0.4c-0.1,0-0.2,0.1-0.2,0.1s-0.1,0.1-0.1,0.1c0,0,0,0-0.1,0c0,0,0,0-0.1,0c0,0,0,0-0.1,0
		c0,0-0.1,0-0.1,0c0,0.1,0,0.1,0,0.1c0,0-0.1,0-0.1,0c0,0-0.1,0-0.1,0c-0.2,0-0.3,0.1-0.4,0.2c-0.1,0.2-0.2,0.2-0.4,0.2c0,0,0,0,0,0
		c0,0,0,0,0,0s-0.1,0-0.1,0c0,0-0.1,0-0.1,0s0,0-0.1,0s-0.1,0-0.1,0c-0.1,0-0.2,0-0.3,0.1l-0.2,0.1c0,0-0.1,0-0.1-0.1
		c-0.1-0.1-0.1-0.1-0.1-0.2c0,0-0.1,0.1-0.1,0.1s0,0.1-0.1,0.1s-0.1,0-0.2,0c0,0-0.1,0-0.1,0c-0.1,0-0.1,0-0.1,0
		c-0.1,0-0.1,0-0.1,0.1c0,0-0.1,0.1-0.1,0.1c0,0-0.1-0.1-0.1-0.2c0-0.1-0.1-0.2-0.2-0.2l-0.2,0c0-0.1,0-0.2-0.1-0.2
		c-0.1-0.1-0.1-0.1-0.2-0.1c-0.1,0-0.1,0-0.2-0.1c0,0-0.1-0.1-0.1-0.2c0,0,0-0.1,0-0.1c0,0,0-0.1,0-0.1c0.1-0.1,0.2-0.2,0.2-0.2
		s0.1-0.1,0.1-0.2c0,0,0.1-0.1,0.1-0.1c0.1-0.1,0.1-0.1,0.1-0.1c0.1-0.1,0.4-0.2,0.8-0.3c0.4-0.1,0.7-0.3,1-0.4
		c0.3-0.1,0.5-0.3,0.7-0.5c0-0.1,0.1-0.1,0.1-0.2c0-0.1,0.1-0.2,0.1-0.2c0-0.1,0.1-0.1,0.1-0.2c0,0,0.1-0.1,0.1-0.1
		c0.1-0.3,0.3-0.6,0.4-0.9c0,0,0-0.1,0-0.3c0-0.2,0-0.3,0-0.3c0,0,0,0,0.1-0.1c0-0.1,0.1-0.1,0.1-0.1c0,0,0-0.1-0.1-0.1
		c0-0.1-0.1-0.1-0.1-0.1c0,0,0-0.1,0.1-0.2c0.1-0.1,0.1-0.2,0.1-0.2c0-0.2,0-0.3,0-0.4c0-0.1,0-0.2,0-0.3S67.9,9,68,9c0,0,0,0,0-0.1
		c0,0,0-0.1,0-0.1c0-0.1,0-0.4,0-0.8c0-0.4,0-0.8,0-1.3c0-0.1,0-0.2-0.1-0.3s-0.1-0.1-0.2-0.2c-0.1,0.1-0.1,0.1-0.2,0.1
		c-0.1,0-0.1,0-0.2-0.1h-0.1c0,0-0.1,0.1-0.2,0.1c-0.1,0-0.2,0-0.3,0c-0.6,0-0.9-0.1-0.9-0.3c0,0,0-0.1,0.1-0.2S66,5.9,66,5.9V5.5
		c0.1-0.1,0.1-0.1,0.1-0.1c0,0,0,0,0,0c0,0,0,0,0,0c0,0,0,0,0,0c0,0,0-0.1,0.1-0.1c0,0,0.1-0.1,0.1-0.1c0,0,0,0,0.1,0s0.1,0,0.1,0
		s0.1,0,0.1,0l0.1,0c0.1,0,0.1-0.1,0.2-0.1S67.1,5,67.1,5c0,0,0,0,0.1,0c0,0,0.1,0,0.1,0c0.1,0,0.2,0,0.2-0.1
		c0.1-0.1,0.1-0.1,0.2-0.1c0,0,0,0,0.1,0c0,0,0,0,0.1,0c0,0,0.1,0,0.2-0.1c0.1,0,0.4-0.1,0.7-0.2c0.4-0.2,0.6-0.2,0.7-0.2
		c0,0,0,0,0,0c0,0,0,0,0,0s0.1,0,0.2-0.1C69.9,4,69.9,4,70,4s0.1,0,0.1,0c0.1,0,0.1,0,0.1,0c0,0,0,0,0.1,0c0.1,0,0.1,0,0.1,0
		c0.1,0,0.1,0,0.2,0c0,0,0.1,0,0.1,0.1s0,0,0,0c0,0,0,0,0.1,0c0,0,0.1,0,0.1,0c0,0,0,0,0.1,0c0,0,0.1,0,0.1,0c0.1,0,0.2,0,0.4,0
		c0.1,0,0.3,0,0.4,0c0,0,0,0,0.1,0c0,0,0.1,0,0.1,0c0,0,0.1,0,0.1,0s0.1,0,0.1,0c0,0,0,0,0.1,0c0,0,0.1,0,0.2,0.1c0.1,0,0.2,0,0.3,0
		c0,0,0,0.1,0,0.1C72.9,4.3,73,4.3,73,4.4C73,4.4,73,4.4,73,4.4z M66.4,15.4L66.4,15.4L66.4,15.4L66.4,15.4L66.4,15.4z"/>
	<path id="XMLID_21_" class="st0" d="M84.6,5.5C84.6,5.5,84.6,5.5,84.6,5.5c0,0.1,0,0.1,0,0.1s0,0-0.1,0.1c0,0-0.1,0.1-0.1,0.2
		c-0.1,0.1-0.1,0.3-0.1,0.8L84,6.9L83.7,7c0,0-0.1,0.1-0.1,0.1c-0.1,0-0.2,0-0.2,0c0,0,0,0-0.1,0c0,0-0.1,0-0.1,0c0,0,0,0,0,0
		c0,0.1-0.1,0.1-0.3,0.1c-0.1,0-0.2,0.1-0.3,0.1c0,0,0,0-0.1,0c0,0-0.1,0-0.1,0c0,0-0.1,0-0.1,0.1s-0.1,0.1-0.1,0.1c0,0,0,0-0.1,0
		c0,0-0.1,0-0.1,0c-0.1,0-0.1,0.1-0.3,0.3h-0.1c0,0-0.1,0-0.1-0.1s-0.1-0.1-0.1-0.1c0,0,0,0-0.1,0c0,0-0.1,0-0.1,0c0,0,0,0-0.1,0
		c0,0-0.1,0-0.1,0c0,0-0.1,0-0.1,0.1s-0.1,0.1-0.2,0.1c0,0-0.1,0-0.1,0c0,0-0.1,0-0.1,0c0,0-0.1,0-0.1,0c0,0,0,0-0.1,0
		c0,0,0,0-0.1,0.1c-0.1,0-0.1-0.1-0.2-0.2c-0.1,0.1-0.1,0.1-0.2,0.1c0,0,0,0-0.1,0s-0.1,0-0.1,0c-0.1,0-0.2,0-0.4,0.1
		c-0.2,0-0.3,0.1-0.3,0.1c-0.1,0.2-0.1,0.4-0.2,0.6c-0.1,0.3-0.1,0.4-0.1,0.5c0,0.2,0,0.3,0.1,0.3c0.1,0.1,0.2,0.1,0.3,0.1
		c0,0,0.1,0,0.1,0s0.1,0,0.1,0c0.1,0,0.2,0,0.2,0.1c0.1,0,0.1,0.1,0.1,0.1c0,0,0.1,0,0.2-0.1c0.1,0,0.2-0.1,0.2-0.1c0,0,0.1,0,0.2,0
		c0.1,0,0.2,0,0.2,0c0.2,0,0.4,0,0.5-0.1s0.3-0.1,0.4-0.1c0,0,0.1,0,0.1,0c0.1,0,0.1,0,0.1,0c0,0,0.1,0,0.1,0c0.1,0,0.1,0,0.1,0
		c0,0,0.1,0,0.3,0.1c0.2,0.1,0.3,0.1,0.3,0.2c0,0,0,0.1,0.1,0.2s0.1,0.2,0.1,0.2c0,0-0.1,0.2-0.2,0.5s-0.3,0.5-0.3,0.6
		c0,0-0.1,0-0.1,0c-0.1,0-0.1,0-0.1,0l0,0.1c0,0.1,0,0.1-0.1,0.2s-0.1,0.1-0.1,0.1c0,0-0.1,0-0.1,0c-0.1,0-0.1,0-0.1,0
		c0,0-0.1,0-0.1,0.1s-0.1,0.1-0.1,0.1c0,0-0.1,0-0.1,0c-0.1,0-0.1,0-0.1,0c0,0,0,0-0.1,0c0,0-0.1,0-0.2,0.1c-0.1,0-0.2,0-0.3,0
		c0,0-0.1,0-0.3,0c-0.2,0-0.3,0-0.3,0c0,0-0.1,0-0.1,0c-0.1,0-0.1,0-0.1,0c0,0-0.1,0-0.1,0c0,0-0.1,0-0.1,0c0,0,0,0,0,0c0,0,0,0,0,0
		l-0.9-0.2c-0.2,0-0.3,0.2-0.3,0.5c0,0.1,0,0.2,0.1,0.2c0.1,0,0.1,0.1,0.2,0.1s0.1,0,0.1,0c0,0,0.1,0,0.2,0.1c0.1,0,0.2,0.1,0.2,0.1
		c0.6,0.2,1,0.3,1.3,0.3c0,0,0,0,0.1,0.1s0,0.1,0.1,0.1c0.1,0,0.2,0,0.4,0c0.2,0,0.4,0,0.6-0.1c0.1-0.1,0.3-0.2,0.6-0.5
		c0,0,0.1,0,0.2,0.1s0.2,0.1,0.2,0.1c0.1,0,0.2,0,0.2-0.1c0,0,0.1,0.1,0.1,0.1c0,0,0,0.1,0,0.1c0,0.1,0,0.1,0,0.1
		c0.1,0.1,0.2,0.2,0.3,0.2s0,0.1,0,0.2c0,0.1,0,0.2-0.1,0.2s-0.1,0.1-0.1,0.2c0,0,0,0.1,0,0.2c0,0.1,0,0.1,0,0.2
		c-0.1,0.2-0.1,0.3-0.1,0.3h-0.1c-0.1,0-0.1-0.1-0.2-0.2h-0.1l0,0c0,0,0,0,0,0c0,0,0,0.1,0.1,0.2c0.1,0.1,0.1,0.1,0.1,0.1
		c0,0.1,0,0.2-0.1,0.4c-0.1,0.2-0.2,0.3-0.3,0.3c0,0-0.1,0-0.2,0c-0.1,0-0.2,0-0.2,0c0,0-0.1,0-0.1,0c0,0-0.1,0-0.1,0
		c-0.1,0-0.2,0-0.2-0.1c-0.1,0-0.3,0-0.4-0.1c-0.1,0-0.2-0.1-0.2-0.1c0,0-0.1,0-0.1,0.1s-0.1,0.1-0.1,0.1c0,0,0,0-0.1-0.1
		c0,0,0-0.1-0.1-0.1c0,0-0.1,0-0.3,0c0,0,0,0,0,0c0,0,0,0,0,0s0,0,0,0h-0.2c-0.1,0-0.2,0-0.2,0.1c0,0.1-0.1,0.1-0.1,0.1
		c0,0,0,0-0.1-0.1c0,0-0.1-0.1-0.1-0.1c0,0-0.1,0-0.1,0c0,0-0.1,0-0.1,0s-0.1,0-0.2-0.1c-0.1-0.1-0.2-0.1-0.2-0.1s0,0-0.1,0
		s-0.1,0-0.1,0c-0.1,0-0.1,0-0.2-0.1c0,0,0-0.1,0-0.2c0-0.1,0-0.1,0-0.2c0,0-0.1-0.1-0.2-0.1c0,0-0.1,0-0.2,0c-0.1,0-0.1,0-0.1,0
		c0,0,0,0,0,0c0,0,0,0,0,0c-0.1,0-0.3-0.1-0.5-0.3c-0.2-0.2-0.4-0.3-0.5-0.3c0,0,0,0-0.1-0.1c-0.1-0.1-0.1-0.1-0.2-0.2
		c0-0.1-0.1-0.2,0-0.3c0,0,0,0-0.1,0s-0.1,0-0.1,0c0,0-0.1-0.1-0.1-0.2c-0.1-0.1-0.1-0.2-0.2-0.2c0-0.1,0-0.1,0-0.3s0-0.2,0-0.2
		c0,0,0-0.1,0-0.1c0-0.1,0-0.1,0-0.2c0,0,0-0.1,0-0.1c0-0.1,0-0.1,0.1-0.2c-0.1-0.1-0.1-0.2-0.1-0.2c0,0,0-0.1,0.1-0.1
		c0-0.1,0.1-0.1,0.1-0.1c0-0.1,0-0.1,0-0.2c0-0.1-0.1-0.1-0.1-0.1c0.1-0.7,0.1-1.2,0.2-1.5c0.1-0.3,0.1-0.6,0.1-0.8
		c0.1,0,0.1-0.1,0.1-0.2c0-0.1,0.1-0.2,0.1-0.3c0-0.1,0-0.2,0-0.2c0-0.3-0.1-0.5,0-0.6c0,0,0-0.1,0.1-0.1C77,6.7,77,6.6,77,6.6
		c-0.1-0.2,0-0.4,0.1-0.5c0.2-0.2,0.4-0.3,0.7-0.4c0.3-0.1,0.5-0.1,0.7-0.1c0,0,0.1,0,0.1,0c0.1,0,0.1,0,0.1,0c0.3,0,0.5,0,0.6-0.1
		c0.2,0,0.4-0.1,0.6-0.1c0.1-0.1,0.2-0.1,0.2-0.1c0,0,0,0,0.1,0c0,0,0,0,0.1,0c0,0,0.1,0,0.1,0c0,0,0.1,0,0.1,0c0,0,0,0,0.1,0
		s0,0,0.1,0c0.2,0,0.6-0.1,1.1-0.2c0.5-0.1,0.8-0.2,0.9-0.2c0,0,0,0,0,0c0,0,0,0,0,0c0.1,0,0.1,0,0.2-0.1c0.3,0,0.7-0.1,1.1-0.1
		c0,0,0.2,0,0.5,0.1c0,0.1,0.1,0.2,0.1,0.3C84.5,5.3,84.6,5.4,84.6,5.5z"/>
	<path id="XMLID_23_" class="st0" d="M97.6,13.8C97.6,13.8,97.6,13.9,97.6,13.8c-0.1,0.1-0.1,0.2-0.2,0.2c0,0-0.1,0.1-0.1,0.1
		c0,0,0,0.1-0.1,0.2c0,0.1-0.1,0.2-0.1,0.2c-0.1,0.1-0.2,0.2-0.4,0.3c-0.2,0.1-0.3,0.2-0.4,0.2c0-0.1,0-0.2,0-0.2
		c-0.1,0-0.1-0.1-0.2-0.1c-0.1,0-0.1-0.1-0.1-0.1c0,0-0.1,0-0.1,0c0,0,0,0-0.1,0c-0.1,0-0.1,0-0.1,0s0,0.1-0.1,0.1
		c0,0.1-0.1,0.1-0.1,0.1h-0.1c0-0.2-0.2-0.2-0.3-0.2c0,0,0,0-0.1,0c0,0-0.1,0-0.1,0s-0.1,0-0.1-0.1s-0.1-0.1-0.2-0.2l-0.1-0.1
		c0,0-0.1,0-0.1,0c-0.1,0-0.1,0-0.2-0.1c-0.1-0.1-0.1-0.1-0.1-0.3c0-0.1,0-0.2-0.1-0.2L94,13.8c-0.1,0-0.1,0-0.2-0.1
		c0-0.1-0.1-0.1-0.1,0l0,0c0,0-0.1,0-0.2-0.1c-0.1-0.1-0.2-0.1-0.3-0.1c0-0.1-0.1-0.2-0.2-0.3c-0.1-0.1-0.2-0.2-0.3-0.2
		s-0.3-0.1-0.4-0.2c-0.1-0.1-0.2-0.2-0.3-0.3c-0.4-0.1-0.6-0.2-0.6-0.2c0,0-0.1,0-0.1,0c0,0-0.1,0-0.1,0c0,0,0,0.1,0,0.2
		c0,0,0,0.1,0,0.2c0,0.1,0,0.1,0,0.2c0,0.1,0,0.2,0,0.3c0,0.2,0,0.3,0,0.3c0,0.1,0,0.2,0,0.3s0.1,0.2,0.1,0.2c0,0,0,0.1-0.1,0.2
		c-0.1,0.1-0.1,0.1-0.1,0.2s0,0.1,0,0.2c0,0.1,0,0.2,0,0.2c-0.1,0.1-0.1,0.1-0.2,0.1c0,0,0,0.1,0,0.2s0,0.2,0,0.2h-0.1
		c-0.1-0.1-0.1-0.1-0.2-0.1c0,0-0.1,0-0.1,0.1c-0.1,0-0.1,0.1-0.1,0.1c-0.1,0-0.1-0.1-0.2-0.2h-0.2c0,0.1,0,0.2-0.1,0.2
		c0,0,0,0-0.1-0.1c-0.1,0-0.1,0-0.1,0c0,0-0.1,0-0.1,0c0,0,0,0,0,0c0-0.1-0.1-0.1-0.1-0.2c-0.1,0-0.1-0.1-0.2-0.1
		c-0.1,0-0.1,0-0.1,0c0,0,0,0,0-0.1c0,0-0.1-0.1-0.1-0.1s0,0-0.1,0c0,0,0,0-0.1,0c0,0-0.1,0-0.1,0c-0.1,0-0.1-0.1-0.1-0.1
		c0-0.1,0-0.3,0.1-0.6c0.1-0.3,0.1-0.5,0-0.6c0.1-0.1,0-0.3-0.1-0.5c-0.1-0.2-0.2-0.3-0.2-0.3c0-0.1,0-0.2,0-0.4c0-0.2,0-0.4,0-0.5
		c0,0,0-0.1,0-0.3c0-0.2,0-0.3,0-0.3c0,0,0-0.2,0-0.4c0-0.3,0-0.5,0-0.8C88,9.6,88,9.3,88,9s-0.1-0.5-0.2-0.7c0-0.2-0.1-0.3-0.1-0.3
		c-0.1-0.1-0.1-0.1-0.1-0.2c0,0,0-0.1,0-0.1c0,0,0-0.1,0-0.1c0,0,0.1-0.1,0.1-0.1s0.1-0.2,0.1-0.4C87.9,7,87.9,6.8,88,6.7
		c0,0,0.1-0.1,0.3-0.3c0.2-0.1,0.3-0.2,0.3-0.3c0.1,0,0.2,0,0.3-0.1c0.1,0,0.2-0.1,0.2-0.1c0,0,0.1,0,0.2,0.1c0.1,0,0.2,0.1,0.2,0.1
		h0.5c0,0,0.1,0,0.2,0c0.1,0,0.1,0,0.2,0c0.1,0,0.1,0,0.2,0c0,0,0,0,0-0.1c0.1,0,0.2-0.1,0.3-0.1s0.1-0.1,0.2-0.1c0,0,0.1,0,0.1,0
		s0.1,0,0.1,0c0.2,0,0.3,0,0.4-0.1c0.1,0,0.1-0.1,0.2-0.1c0,0,0.1,0,0.1,0s0.1,0,0.1,0c0,0,0.1,0,0.2,0c0.1,0,0.2,0,0.2,0
		c0,0,0.1,0,0.1,0c0,0,0.1,0,0.1,0c0.1,0,0.1,0,0.3-0.1c0.3,0,0.6-0.1,0.8-0.1c0.1,0,0.2,0,0.2,0c0.1,0,0.2,0,0.2,0.1s0.1,0,0.1,0
		c0,0,0.1,0,0.1,0c0.1,0,0.1,0,0.1,0c0,0,0.1,0,0.3,0.1c0.2,0.1,0.3,0.1,0.3,0.1c0,0,0.1,0,0.1,0c0,0,0.1,0,0.1,0
		c0.1,0,0.1,0.1,0.2,0.2c0.1,0.1,0.2,0.2,0.2,0.3c0,0,0.1,0.1,0.2,0.1c0.1,0.1,0.2,0.2,0.2,0.3c0.3,0,0.6,0.4,0.9,1c0,0,0,0-0.1,0
		c0,0-0.1,0-0.1,0.1c0,0,0,0,0,0.1c0,0,0,0,0,0.1c0,0,0.1,0.1,0.1,0.1c0,0,0.1,0.1,0.1,0.1c0,0.1,0,0.1,0,0.2c0,0,0,0.1,0,0.1
		c0,0.1,0,0.1,0,0.1c0,0-0.1,0-0.1,0c-0.1,0-0.1,0-0.2,0c-0.1,0-0.1,0.1-0.1,0.1c0,0.1,0,0.1,0,0.2c0,0.1,0,0.2,0,0.2
		c0,0.1,0,0.1,0,0.1c0,0.1,0,0.2-0.1,0.2h-0.1c0,0,0,0-0.1,0c0,0,0,0,0,0c-0.1,0-0.2,0.1-0.4,0.3c-0.2,0.2-0.3,0.3-0.4,0.3
		c0,0,0,0-0.1,0c0,0,0,0-0.1,0c0,0,0,0,0,0c0,0,0,0,0,0c0,0,0,0,0,0c0,0,0,0,0,0c0,0,0,0,0,0c0,0,0,0,0,0c-0.1,0-0.1,0-0.1-0.1
		c0,0-0.1,0.1-0.2,0.2c-0.1,0.1-0.2,0.2-0.3,0.4l-0.1,0.2c0,0.1,0,0.1,0.1,0.2c0.1,0.1,0.2,0.1,0.3,0.2c0.1,0.1,0.2,0.1,0.3,0.1
		s0.2,0.1,0.2,0.1c0.1,0.1,0.3,0.2,0.5,0.3c0,0,0.1,0,0.1,0.1s0.1,0.1,0.1,0.1c0,0,0.1,0,0.1,0c0,0,0.1,0.1,0.3,0.2
		c0.1,0.1,0.2,0.2,0.3,0.2c0.1,0.1,0.2,0.2,0.2,0.3c0,0,0,0.1,0,0.1c0,0.1,0,0.1,0,0.2c0,0.1,0.1,0.1,0.2,0.3
		C97.5,13.5,97.6,13.6,97.6,13.8z M94,8.2c-0.1-0.1-0.3-0.3-0.5-0.4c-0.2-0.1-0.4-0.2-0.6-0.2c0,0-0.1,0-0.1,0.1
		c-0.1,0.1-0.1,0.1-0.1,0.1c0,0-0.1,0-0.1,0c-0.1,0-0.1,0-0.1,0c0,0-0.1,0-0.2,0.1c0,0,0-0.1-0.1-0.1S92,7.6,92,7.6h-0.1
		c-0.1,0.1-0.2,0.1-0.3,0.1c-0.1,0-0.2,0-0.3-0.1h-0.1c0,0-0.1,0.1-0.1,0.1c-0.1,0-0.1,0.1-0.1,0.1c0,0-0.1,0-0.1,0s-0.1,0-0.1,0
		c-0.1,0-0.1,0-0.2,0.1c-0.1,0.1-0.1,0.2-0.1,0.3c0,0,0,0.1,0.1,0.3s0.1,0.3,0.2,0.3c0.1,0,0.2,0.1,0.3,0.1C91.1,8.9,91.2,9,91.3,9
		c0,0,0.1,0,0.2,0c0.1,0,0.1,0,0.2,0c0,0,0.1,0,0.2,0s0.2,0,0.2,0c0.3,0,0.5,0,0.7-0.1c0,0,0.1,0,0.3,0c0.1,0,0.2,0,0.2,0
		c0,0,0.1-0.1,0.2-0.1c0.1,0,0.2-0.1,0.2-0.1s0.1-0.1,0.2-0.1C93.9,8.3,94,8.3,94,8.2z M96.5,9.3h-0.1c0,0-0.1,0.1-0.1,0.1
		c0,0,0,0,0.1,0C96.4,9.4,96.4,9.3,96.5,9.3z"/>
	<path id="XMLID_27_" class="st0" d="M119,7.8c0,0.2-0.1,0.4-0.2,0.8c-0.1,0.4-0.2,0.5-0.3,0.5c0,0-0.1,0-0.1-0.1
		c-0.1,0.1-0.1,0.3-0.2,0.4s-0.2,0.3-0.3,0.5c0,0,0,0-0.1,0c0,0-0.1,0-0.1,0c0,0-0.1,0-0.3,0.1c-0.1,0.1-0.2,0.2-0.2,0.2
		c0,0.1,0,0.2,0,0.5c0,0-0.1,0-0.2,0.1c-0.1,0-0.1,0-0.2,0.1c0,0-0.1,0.1-0.2,0.1c-0.1,0.1-0.2,0.1-0.2,0.1c0,0-0.1,0-0.3,0
		c0,0,0,0,0,0.1c0,0,0,0-0.1,0.1s0,0,0,0.1c0,0,0,0-0.1,0.1s0,0-0.1,0c0,0,0,0-0.1,0c0,0,0-0.1,0-0.1c0,0,0-0.1-0.1-0.1
		c0,0-0.1-0.1-0.1-0.1c-0.1,0.1-0.1,0.2-0.2,0.2c-0.1,0.1-0.1,0.1-0.1,0.1c0,0,0,0,0,0.1l-0.1,0c0,0-0.1,0-0.1,0c0-0.1,0-0.1,0-0.1
		l0,0c-0.1,0.1-0.3,0.2-0.5,0.4c-0.2,0.1-0.4,0.2-0.5,0.3c0,0.3-0.1,0.7-0.2,1.1c0,0.1,0.1,0.2,0.1,0.4c0,0.2-0.1,0.3-0.1,0.4
		c0.1,0.2,0.1,0.4,0.1,0.4c0,0.4-0.1,0.7-0.4,0.7c0,0.1-0.1,0.1,0,0.1c0,0,0,0.1,0,0.1s-0.1,0-0.2,0c0,0-0.1,0-0.1,0c0,0,0,0-0.1,0
		c0,0,0-0.1,0-0.1c0,0,0,0-0.1,0c0,0-0.1,0-0.1,0c0,0-0.1,0-0.1,0.1c-0.1,0-0.1,0.1-0.1,0.1c-0.1,0-0.2-0.1-0.3-0.2h-0.1
		c-0.1,0.1-0.1,0.2-0.2,0.2c-0.1-0.1-0.2-0.1-0.2-0.1c0,0-0.1-0.1-0.2-0.3c-0.1-0.2-0.2-0.3-0.2-0.3c0,0,0,0-0.1,0c0,0,0,0-0.1,0
		c-0.1,0-0.1,0-0.1-0.1s0-0.1-0.1-0.2c0-0.1,0-0.2-0.1-0.2V14c0.1,0,0.2-0.1,0.2-0.1c0,0,0,0-0.1,0c0,0-0.1,0-0.1,0
		c-0.1-0.1-0.1-0.2-0.1-0.4c0-0.1,0-0.1,0-0.2c0,0,0-0.1,0-0.1c0,0,0,0,0,0c0,0,0,0,0.1,0c0,0,0.1-0.1,0.1-0.1
		c0-0.1,0.1-0.1,0.1-0.2l-0.3-0.7c0-0.2,0.1-0.4,0.2-0.7s0.2-0.5,0.2-0.7c0,0,0-0.1-0.1-0.2c0-0.1-0.1-0.2-0.1-0.3s0-0.1,0-0.2
		c0-0.1,0-0.1,0-0.2c0-0.3,0-0.6-0.1-0.9c-0.1,0-0.1-0.1-0.2-0.2c-0.1-0.1-0.1-0.2-0.1-0.3c0,0,0-0.1,0.1-0.1
		c-0.1-0.1-0.1-0.2-0.1-0.3c0-0.1,0-0.2-0.1-0.4c-0.1-0.2-0.1-0.4,0-0.5c0-0.1,0-0.2,0-0.3c0-0.1,0-0.2-0.1-0.3c0-0.1,0-0.1,0-0.2
		c0,0,0-0.1,0.1-0.2s0.1-0.2,0.1-0.2l0-0.1c0-0.1,0-0.1-0.1-0.2c0-0.1-0.1-0.2-0.1-0.3c0-0.1-0.1-0.2-0.1-0.3c0-0.1,0-0.2,0-0.3
		s0.1-0.1,0.2-0.2c0.1-0.1,0.3-0.1,0.4-0.2l0.2-0.1c0,0,0,0,0-0.1c0,0,0-0.1,0-0.1c0.1,0,0.2-0.1,0.3-0.2c0.1-0.1,0.1-0.1,0.2-0.1
		c0,0,0.1,0,0.1,0c0.1,0,0.1,0,0.1,0c0,0,0-0.1,0-0.1c0,0,0-0.1,0-0.1c0,0,0.1-0.1,0.1-0.1c0,0,0,0,0.1,0c0,0,0.1,0,0.1,0
		c0,0,0.1,0,0.1-0.1c0.1,0,0.1-0.1,0.1-0.1c0.1,0,0.1,0,0.2,0.1c0.1,0,0.2,0.1,0.3,0.2s0.2,0.1,0.2,0.2c0.1,0.1,0.1,0.4,0.1,0.8
		c0,0,0.1,0,0.1,0.1c0.1,0,0.1,0.1,0.1,0.1s0.1,0,0.2-0.1c0.1,0,0.1-0.1,0.1-0.1c0,0,0.1,0,0.2,0.1c0.1,0,0.2,0.1,0.2,0.1
		c0.1,0,0.1,0,0.2-0.1c0.1,0,0.1-0.1,0.1-0.1c0.1,0,0.2,0,0.4,0.1c0.2,0.1,0.3,0.1,0.4,0.1c0,0,0.1,0,0.2-0.1c0.1,0,0.2-0.1,0.2-0.1
		c0,0,0.1,0,0.1,0c0,0,0,0,0.1,0c0,0,0,0,0.1,0c0,0,0,0,0,0.1c0.1,0,0.1,0,0.2-0.1c0,0,0.1,0,0.1,0c0.1,0,0.1,0,0.1,0.1
		c0,0,0.1,0,0.2,0s0.1,0,0.1,0c0.1,0,0.2,0,0.4,0.1s0.2,0.1,0.3,0.2c0,0,0.1,0.1,0.1,0.2s0.1,0.2,0.2,0.2c0,0,0,0.1,0.1,0.2
		c0.1,0.1,0.1,0.1,0.1,0.2c0,0.1,0.1,0.2,0.1,0.3s0,0.3,0,0.3c0.1,0.1,0.2,0.2,0.2,0.5c0,0.1,0.1,0.2,0.1,0.4
		c0.1,0.2,0.1,0.3,0.1,0.4C118.9,7.7,119,7.8,119,7.8z M111.4,12L111.4,12L111.4,12L111.4,12L111.4,12z M116,7.6
		c0-0.1,0-0.1-0.1-0.2c-0.1-0.1-0.2-0.1-0.3-0.2c-0.1,0-0.1-0.1-0.2-0.1c0,0,0,0.1-0.1,0.1s-0.1,0.1-0.1,0.1c0,0-0.1,0-0.1-0.1
		c0-0.1,0-0.1,0-0.2c0,0-0.1,0-0.2,0.1c-0.1,0.1-0.1,0.1-0.1,0.1c0,0-0.1,0-0.2-0.1c-0.1-0.1-0.2-0.1-0.2-0.1c0,0-0.1,0-0.1,0.1
		c0,0-0.1,0.1-0.1,0.1c0,0,0,0.1,0,0.2c0,0.1,0,0.2,0,0.2c0,0.3-0.1,0.5-0.1,0.7c0,0.1,0,0.3,0,0.4c0,0,0,0.1,0.1,0.2
		s0.1,0.2,0.1,0.2c0,0,0,0,0.1,0c0.1,0,0.1,0,0.1,0s0.1,0,0.1,0c0,0,0.1,0,0.1,0c0.1,0,0.2-0.1,0.3-0.2s0.2-0.1,0.3-0.1
		c0,0,0.1-0.1,0.2-0.3s0.2-0.2,0.3-0.3c0-0.1,0-0.1,0.1-0.2c0-0.1,0-0.2,0.1-0.3C116,7.7,116,7.6,116,7.6z M115.2,11.4L115.2,11.4
		L115.2,11.4L115.2,11.4L115.2,11.4z"/>
	<path id="XMLID_32_" class="st0" d="M132.3,13.1c-0.1,0.1-0.1,0.2-0.1,0.3c0,0.1,0,0.2,0,0.3s0,0.2,0,0.3s0,0.2,0,0.3
		c0,0,0,0-0.1,0.1c0,0-0.1,0.1-0.1,0.1c0,0,0,0.1-0.1,0.2c0,0.1-0.1,0.2-0.1,0.2c0,0-0.1,0.1-0.1,0.2c-0.1,0.1-0.1,0.1-0.2,0.1h0
		c-0.1,0-0.1,0-0.1-0.1c0,0,0,0-0.1,0c0,0,0,0-0.1,0c-0.1,0-0.3-0.1-0.7-0.3c0,0,0,0-0.1-0.1c0,0,0,0-0.1,0c-0.1,0-0.1,0-0.2,0.1
		c-0.1,0-0.2-0.1-0.3-0.2c-0.1-0.2-0.2-0.3-0.2-0.5c-0.1-0.2-0.1-0.5-0.2-1l-0.1-0.7c-0.1-0.1-0.3-0.1-0.4-0.1c0,0,0,0-0.1,0
		c0,0,0,0-0.1,0c0,0-0.1,0-0.1,0c-0.1,0-0.1,0-0.1,0c0,0-0.1,0-0.2,0.1s-0.2,0.1-0.2,0.1c0,0,0,0-0.1-0.1c0,0-0.1-0.1-0.2-0.1
		c-0.1,0-0.2-0.1-0.3-0.1c-0.1,0-0.2,0-0.3,0.1c-0.1,0-0.1,0.1-0.1,0.1c0,0-0.1,0-0.1-0.1c-0.1,0-0.1-0.1-0.1-0.1l-0.1,0.1
		c-0.1,0-0.2,0.1-0.3,0.1c0,0-0.1,0-0.2-0.1c-0.1-0.1-0.2-0.1-0.3-0.1c-0.2,0-0.4,0.1-0.5,0.2c-0.1,0.1-0.3,0.3-0.3,0.5
		c-0.1,0.2-0.1,0.4-0.2,0.7c-0.1,0.2-0.2,0.4-0.3,0.6c-0.1,0.2-0.3,0.3-0.4,0.3c0,0,0,0,0,0.1c0,0,0,0.1-0.1,0.1c0,0-0.1,0-0.1,0
		c0,0-0.1,0-0.1,0c0,0.1-0.1,0.2-0.2,0.3c-0.3,0-0.5-0.1-0.6-0.1c-0.1,0-0.1-0.1-0.1-0.1c0,0,0-0.1-0.1-0.1c0,0-0.1,0-0.2,0
		c0,0-0.1,0.1-0.2,0.2c-0.1-0.1-0.1-0.3-0.1-0.7s-0.1-0.5-0.1-0.6l-0.1,0l0,0c0,0,0,0,0,0c-0.1-0.1-0.1-0.2-0.1-0.2
		c0-0.1,0-0.2,0.1-0.3c0.1-0.1,0.1-0.2,0.1-0.2c0.1-0.1,0.2-0.2,0.2-0.2c0.1-0.3,0.3-0.5,0.5-0.8c0.2-0.3,0.3-0.5,0.4-0.6
		c0.1-0.2,0.1-0.4,0.2-0.7c0.1-0.1,0.2-0.2,0.2-0.3c0,0,0-0.1,0-0.2s0-0.2,0-0.2c0.1-0.4,0.2-0.7,0.1-0.8c0.2-0.4,0.4-0.8,0.7-1.2
		c0,0,0-0.1,0.1-0.2c0-0.1,0.1-0.2,0.1-0.2c0,0,0.1-0.1,0.2-0.2c0.1-0.1,0.2-0.2,0.3-0.2c0-0.1,0.1-0.3,0.2-0.5
		c0.1-0.2,0.2-0.5,0.3-0.6c0.1-0.2,0.2-0.3,0.3-0.4c0-0.2,0-0.3,0.1-0.3c0.2-0.2,0.3-0.4,0.5-0.6c0.2-0.2,0.3-0.4,0.3-0.5
		c0.1-0.1,0.2-0.2,0.3-0.2c0.2-0.1,0.4-0.1,0.6-0.1c0,0,0.1,0,0.2,0c0.1,0,0.1,0,0.2,0s0.1,0,0.1,0s0.1,0,0.2,0c0,0,0.1,0,0.2,0.1
		s0.1,0.1,0.2,0.1c0.1,0,0.2,0.1,0.3,0.2c0,0,0,0.1,0.1,0.1c0.1,0.1,0.1,0.1,0.1,0.2c0,0.1,0.1,0.1,0.1,0.1c0,0,0,0,0.1,0.1
		c0,0,0.1,0.1,0.1,0.1c0,0,0.1,0,0.1,0.1c0,0,0.1,0.1,0.1,0.1s0,0.1,0.1,0.1c0,0,0,0.1,0,0.1c0,0,0,0.1,0,0.1
		c0.3,0.4,0.5,0.9,0.6,1.4c0,0,0,0.1,0.1,0.2s0.1,0.2,0.1,0.2c0,0.2,0,0.5,0.1,0.7c0.1,0.2,0.2,0.5,0.3,0.8c0.1,0.3,0.2,0.5,0.2,0.6
		c0,0,0,0.1,0.1,0.2c0,0.1,0.1,0.2,0.1,0.3c0,0,0,0.1,0,0.1c0,0.1,0,0.1,0,0.2c0,0.1,0,0.1,0,0.1c0.2,0.1,0.2,0.3,0.2,0.4
		c0,0.1,0,0.1,0,0.3c0,0.1-0.1,0.2-0.1,0.4l0,0.2c0,0,0,0.1,0.1,0.1c0,0.1,0.1,0.1,0.1,0.1c0,0.1,0,0.2,0.1,0.3s0.1,0.3,0.1,0.4
		s0,0.2,0,0.3c0,0.1,0,0.2,0,0.2c-0.1,0.1,0,0.2,0,0.3S132.2,13.1,132.3,13.1z M128.6,9.3c0-0.2,0-0.4-0.1-0.5
		c0-0.1-0.1-0.3-0.2-0.5c-0.1-0.2-0.1-0.4-0.2-0.7H128c-0.2,0.3-0.4,0.5-0.6,0.7c0,0.1-0.2,0.3-0.4,0.6c-0.2,0.2-0.3,0.4-0.3,0.6
		c0,0.1,0,0.2,0.1,0.2c0,0,0.1,0,0.1,0c0.1,0,0.1,0,0.2,0c0.1,0,0.1,0,0.2,0c0.1,0,0.2,0,0.2,0c0.1,0,0.1,0,0.1-0.1s0,0,0.1,0
		c0,0,0.1,0,0.1,0c0,0,0.1,0,0.1,0c0.1,0,0.2,0,0.4-0.1C128.5,9.5,128.6,9.4,128.6,9.3z"/>
	<path id="XMLID_35_" class="st0" d="M144.6,4.4C144.6,4.5,144.6,4.5,144.6,4.4c0,0.1-0.1,0.1-0.1,0.2c0,0,0,0.1,0,0.1
		c0,0,0,0.1,0,0.2s0,0.1,0,0.2c0,0.1-0.1,0.1-0.2,0.1c0,0.1-0.1,0.1-0.1,0.3S144,5.7,144,5.7c-0.1,0-0.1,0-0.2-0.1
		c0,0-0.1,0-0.1,0.1s-0.1,0-0.1,0c0,0-0.1,0-0.1-0.1s-0.1-0.1-0.2-0.1c0,0,0,0-0.1,0.1s-0.1,0.2-0.1,0.3S143,6.1,143,6.1
		c0,0-0.1,0-0.1,0c0,0-0.1,0-0.2,0c0,0-0.1,0-0.2,0s-0.1,0-0.2,0s0,0,0,0c0,0,0,0,0,0c-0.1,0-0.1,0.1-0.2,0.2c0,0-0.1,0.1-0.1,0.1
		c0,0,0,0.1-0.1,0.3c0,0.1-0.1,0.2,0,0.3c0,0.1,0,0.1,0,0.1c0,0,0,0.2,0,0.4c0,0.2,0,0.4,0,0.4c0,0.3,0,0.7-0.1,1.2s-0.1,0.9-0.1,1
		c0,0,0,0,0,0.1c0,0,0,0.1,0,0.1c0,0,0,0.1-0.1,0.2c0,0.1-0.1,0.2-0.1,0.2c0,0.1,0,0.2,0,0.4s0,0.3,0,0.4c0,0,0,0,0,0c0,0,0,0,0,0.1
		c0,0,0,0,0,0.1c0,0-0.1,0-0.1,0c0,0,0,0.1,0,0.1s0,0.1,0,0.1s0,0.1-0.1,0.1c0,0-0.1,0.1-0.1,0.2c-0.1,0.1-0.1,0.1-0.1,0.2
		s-0.1,0.1-0.1,0.2c0,0,0,0,0,0.1c0,0.1,0,0.1,0,0.1c0,0,0,0.1,0,0.1s0,0.1,0,0.2c0,0,0,0-0.1,0.1c0,0-0.1,0.1-0.1,0.1s0,0.1,0,0.1
		c-0.1,0-0.1,0-0.1,0.1s0,0.1,0,0.2c0,0.1,0,0.1,0,0.1c0,0,0,0.1-0.1,0.1c0,0-0.1,0.1-0.1,0.1c-0.1,0-0.1,0.1-0.2,0.2
		s-0.2,0.2-0.3,0.2c0,0.2-0.1,0.3-0.1,0.4c-0.1,0-0.2,0.1-0.2,0.1s-0.1,0.1-0.1,0.1c0,0,0,0-0.1,0c0,0,0,0-0.1,0c0,0,0,0-0.1,0
		c0,0-0.1,0-0.1,0c0,0.1,0,0.1,0,0.1c0,0-0.1,0-0.1,0c0,0-0.1,0-0.1,0c-0.2,0-0.3,0.1-0.4,0.2c-0.1,0.2-0.2,0.2-0.4,0.2c0,0,0,0,0,0
		c0,0,0,0,0,0s-0.1,0-0.1,0c0,0-0.1,0-0.1,0s0,0-0.1,0s-0.1,0-0.1,0c-0.1,0-0.2,0-0.3,0.1l-0.2,0.1c0,0-0.1,0-0.1-0.1
		c-0.1-0.1-0.1-0.1-0.1-0.2c0,0-0.1,0.1-0.1,0.1s0,0.1-0.1,0.1s-0.1,0-0.2,0c0,0-0.1,0-0.1,0c-0.1,0-0.1,0-0.1,0
		c-0.1,0-0.1,0-0.1,0.1c0,0-0.1,0.1-0.1,0.1c0,0-0.1-0.1-0.1-0.2c0-0.1-0.1-0.2-0.2-0.2l-0.2,0c0-0.1,0-0.2-0.1-0.2
		s-0.1-0.1-0.2-0.1c-0.1,0-0.1,0-0.2-0.1c0,0-0.1-0.1-0.1-0.2c0,0,0-0.1,0-0.1c0,0,0-0.1,0-0.1c0.1-0.1,0.2-0.2,0.2-0.2
		s0.1-0.1,0.1-0.2c0,0,0.1-0.1,0.1-0.1c0.1-0.1,0.1-0.1,0.1-0.1c0.1-0.1,0.4-0.2,0.8-0.3c0.4-0.1,0.7-0.3,1-0.4
		c0.3-0.1,0.5-0.3,0.7-0.5c0-0.1,0.1-0.1,0.1-0.2c0-0.1,0.1-0.2,0.1-0.2c0-0.1,0.1-0.1,0.1-0.2c0,0,0.1-0.1,0.1-0.1
		c0.1-0.3,0.3-0.6,0.4-0.9c0,0,0-0.1,0-0.3c0-0.2,0-0.3,0-0.3c0,0,0,0,0.1-0.1c0-0.1,0.1-0.1,0.1-0.1c0,0,0-0.1-0.1-0.1
		c0-0.1-0.1-0.1-0.1-0.1c0,0,0-0.1,0.1-0.2c0.1-0.1,0.1-0.2,0.1-0.2c0-0.2,0-0.3,0-0.4c0-0.1,0-0.2,0-0.3s0.1-0.1,0.1-0.2
		c0,0,0,0,0-0.1c0,0,0-0.1,0-0.1c0-0.1,0-0.4,0-0.8c0-0.4,0-0.8,0-1.3c0-0.1,0-0.2-0.1-0.3s-0.1-0.1-0.2-0.2
		c-0.1,0.1-0.1,0.1-0.2,0.1c-0.1,0-0.1,0-0.2-0.1h-0.1c0,0-0.1,0.1-0.2,0.1c-0.1,0-0.2,0-0.3,0c-0.6,0-0.9-0.1-0.9-0.3
		c0,0,0-0.1,0.1-0.2s0.1-0.1,0.1-0.2V5.5c0.1-0.1,0.1-0.1,0.1-0.1c0,0,0,0,0,0c0,0,0,0,0,0c0,0,0,0,0,0c0,0,0-0.1,0.1-0.1
		c0,0,0.1-0.1,0.1-0.1c0,0,0,0,0.1,0s0.1,0,0.1,0s0.1,0,0.1,0l0.1,0c0.1,0,0.1-0.1,0.2-0.1s0.1-0.1,0.2-0.1c0,0,0,0,0.1,0
		c0,0,0.1,0,0.1,0c0.1,0,0.2,0,0.2-0.1c0.1-0.1,0.1-0.1,0.2-0.1c0,0,0,0,0.1,0c0,0,0,0,0.1,0c0,0,0.1,0,0.2-0.1
		c0.1,0,0.4-0.1,0.7-0.2c0.4-0.2,0.6-0.2,0.7-0.2c0,0,0,0,0,0c0,0,0,0,0,0s0.1,0,0.2-0.1c0.1-0.1,0.2-0.1,0.2-0.1s0.1,0,0.1,0
		c0.1,0,0.1,0,0.1,0c0,0,0,0,0.1,0c0.1,0,0.1,0,0.1,0c0.1,0,0.1,0,0.2,0c0,0,0.1,0,0.1,0.1s0,0,0,0c0,0,0,0,0.1,0c0,0,0.1,0,0.1,0
		c0,0,0,0,0.1,0c0,0,0.1,0,0.1,0c0.1,0,0.2,0,0.4,0c0.1,0,0.3,0,0.4,0c0,0,0,0,0.1,0c0,0,0.1,0,0.1,0c0,0,0.1,0,0.1,0s0.1,0,0.1,0
		c0,0,0,0,0.1,0c0,0,0.1,0,0.2,0.1c0.1,0,0.2,0,0.3,0c0,0,0,0.1,0,0.1C144.5,4.3,144.5,4.3,144.6,4.4C144.6,4.4,144.6,4.4,144.6,4.4
		z M138,15.4L138,15.4L138,15.4L138,15.4L138,15.4z"/>
	<path id="XMLID_38_" class="st0" d="M158.2,13.1c-0.1,0.1-0.1,0.2-0.1,0.3c0,0.1,0,0.2,0,0.3s0,0.2,0,0.3s0,0.2,0,0.3
		c0,0,0,0-0.1,0.1c0,0-0.1,0.1-0.1,0.1c0,0,0,0.1-0.1,0.2c0,0.1-0.1,0.2-0.1,0.2c0,0-0.1,0.1-0.1,0.2c-0.1,0.1-0.1,0.1-0.2,0.1h0
		c-0.1,0-0.1,0-0.1-0.1c0,0,0,0-0.1,0c0,0,0,0-0.1,0c-0.1,0-0.3-0.1-0.7-0.3c0,0,0,0-0.1-0.1c0,0,0,0-0.1,0c-0.1,0-0.1,0-0.2,0.1
		c-0.1,0-0.2-0.1-0.3-0.2c-0.1-0.2-0.2-0.3-0.2-0.5c-0.1-0.2-0.1-0.5-0.2-1l-0.1-0.7c-0.1-0.1-0.3-0.1-0.4-0.1c0,0,0,0-0.1,0
		c0,0,0,0-0.1,0c0,0-0.1,0-0.1,0c-0.1,0-0.1,0-0.1,0c0,0-0.1,0-0.2,0.1s-0.2,0.1-0.2,0.1c0,0,0,0-0.1-0.1c0,0-0.1-0.1-0.2-0.1
		c-0.1,0-0.2-0.1-0.3-0.1c-0.1,0-0.2,0-0.3,0.1c-0.1,0-0.1,0.1-0.1,0.1c0,0-0.1,0-0.1-0.1c-0.1,0-0.1-0.1-0.1-0.1l-0.1,0.1
		c-0.1,0-0.2,0.1-0.3,0.1c0,0-0.1,0-0.2-0.1c-0.1-0.1-0.2-0.1-0.3-0.1c-0.2,0-0.4,0.1-0.5,0.2c-0.1,0.1-0.3,0.3-0.3,0.5
		c-0.1,0.2-0.1,0.4-0.2,0.7c-0.1,0.2-0.2,0.4-0.3,0.6c-0.1,0.2-0.3,0.3-0.4,0.3c0,0,0,0,0,0.1c0,0,0,0.1-0.1,0.1c0,0-0.1,0-0.1,0
		c0,0-0.1,0-0.1,0c0,0.1-0.1,0.2-0.2,0.3c-0.3,0-0.5-0.1-0.6-0.1c-0.1,0-0.1-0.1-0.1-0.1c0,0,0-0.1-0.1-0.1c0,0-0.1,0-0.2,0
		c0,0-0.1,0.1-0.2,0.2c-0.1-0.1-0.1-0.3-0.1-0.7s-0.1-0.5-0.1-0.6l-0.1,0l0,0c0,0,0,0,0,0c-0.1-0.1-0.1-0.2-0.1-0.2
		c0-0.1,0-0.2,0.1-0.3c0.1-0.1,0.1-0.2,0.1-0.2c0.1-0.1,0.2-0.2,0.2-0.2c0.1-0.3,0.3-0.5,0.5-0.8c0.2-0.3,0.3-0.5,0.4-0.6
		c0.1-0.2,0.1-0.4,0.2-0.7c0.1-0.1,0.2-0.2,0.2-0.3c0,0,0-0.1,0-0.2s0-0.2,0-0.2c0.1-0.4,0.2-0.7,0.1-0.8c0.2-0.4,0.4-0.8,0.7-1.2
		c0,0,0-0.1,0.1-0.2c0-0.1,0.1-0.2,0.1-0.2c0,0,0.1-0.1,0.2-0.2c0.1-0.1,0.2-0.2,0.3-0.2c0-0.1,0.1-0.3,0.2-0.5
		c0.1-0.2,0.2-0.5,0.3-0.6c0.1-0.2,0.2-0.3,0.3-0.4c0-0.2,0-0.3,0.1-0.3c0.2-0.2,0.3-0.4,0.5-0.6c0.2-0.2,0.3-0.4,0.3-0.5
		c0.1-0.1,0.2-0.2,0.3-0.2c0.2-0.1,0.4-0.1,0.6-0.1c0,0,0.1,0,0.2,0c0.1,0,0.1,0,0.2,0s0.1,0,0.1,0s0.1,0,0.2,0c0,0,0.1,0,0.2,0.1
		s0.1,0.1,0.2,0.1c0.1,0,0.2,0.1,0.3,0.2c0,0,0,0.1,0.1,0.1c0.1,0.1,0.1,0.1,0.1,0.2c0,0.1,0.1,0.1,0.1,0.1c0,0,0,0,0.1,0.1
		c0,0,0.1,0.1,0.1,0.1c0,0,0.1,0,0.1,0.1c0,0,0.1,0.1,0.1,0.1s0,0.1,0.1,0.1c0,0,0,0.1,0,0.1c0,0,0,0.1,0,0.1
		c0.3,0.4,0.5,0.9,0.6,1.4c0,0,0,0.1,0.1,0.2s0.1,0.2,0.1,0.2c0,0.2,0,0.5,0.1,0.7c0.1,0.2,0.2,0.5,0.3,0.8c0.1,0.3,0.2,0.5,0.2,0.6
		c0,0,0,0.1,0.1,0.2c0,0.1,0.1,0.2,0.1,0.3c0,0,0,0.1,0,0.1c0,0.1,0,0.1,0,0.2c0,0.1,0,0.1,0,0.1c0.2,0.1,0.2,0.3,0.2,0.4
		c0,0.1,0,0.1,0,0.3c0,0.1-0.1,0.2-0.1,0.4l0,0.2c0,0,0,0.1,0.1,0.1c0,0.1,0.1,0.1,0.1,0.1c0,0.1,0,0.2,0.1,0.3s0.1,0.3,0.1,0.4
		s0,0.2,0,0.3c0,0.1,0,0.2,0,0.2c-0.1,0.1,0,0.2,0,0.3S158.1,13.1,158.2,13.1z M154.5,9.3c0-0.2,0-0.4-0.1-0.5
		c0-0.1-0.1-0.3-0.2-0.5c-0.1-0.2-0.1-0.4-0.2-0.7h-0.2c-0.2,0.3-0.4,0.5-0.6,0.7c0,0.1-0.2,0.3-0.4,0.6c-0.2,0.2-0.3,0.4-0.3,0.6
		c0,0.1,0,0.2,0.1,0.2c0,0,0.1,0,0.1,0c0.1,0,0.1,0,0.2,0c0.1,0,0.1,0,0.2,0c0.1,0,0.2,0,0.2,0c0.1,0,0.1,0,0.1-0.1s0,0,0.1,0
		c0,0,0.1,0,0.1,0c0,0,0.1,0,0.1,0c0.1,0,0.2,0,0.4-0.1C154.4,9.5,154.5,9.4,154.5,9.3z"/>
	<path id="XMLID_41_" class="st0" d="M171.4,13.8C171.4,13.8,171.4,13.9,171.4,13.8c-0.1,0.1-0.1,0.2-0.2,0.2c0,0-0.1,0.1-0.1,0.1
		c0,0,0,0.1-0.1,0.2c0,0.1-0.1,0.2-0.1,0.2c-0.1,0.1-0.2,0.2-0.4,0.3c-0.2,0.1-0.3,0.2-0.4,0.2c0-0.1,0-0.2,0-0.2
		c-0.1,0-0.1-0.1-0.2-0.1c-0.1,0-0.1-0.1-0.1-0.1c0,0-0.1,0-0.1,0c0,0,0,0-0.1,0c-0.1,0-0.1,0-0.1,0s0,0.1-0.1,0.1
		c0,0.1-0.1,0.1-0.1,0.1h-0.1c0-0.2-0.2-0.2-0.3-0.2c0,0,0,0-0.1,0c0,0-0.1,0-0.1,0s-0.1,0-0.1-0.1s-0.1-0.1-0.2-0.2l-0.1-0.1
		c0,0-0.1,0-0.1,0c-0.1,0-0.1,0-0.2-0.1c-0.1-0.1-0.1-0.1-0.1-0.3c0-0.1,0-0.2-0.1-0.2l-0.2,0.1c-0.1,0-0.1,0-0.2-0.1
		c0-0.1-0.1-0.1-0.1,0l0,0c0,0-0.1,0-0.2-0.1c-0.1-0.1-0.2-0.1-0.3-0.1c0-0.1-0.1-0.2-0.2-0.3c-0.1-0.1-0.2-0.2-0.3-0.2
		s-0.3-0.1-0.4-0.2c-0.1-0.1-0.2-0.2-0.3-0.3c-0.4-0.1-0.6-0.2-0.6-0.2c0,0-0.1,0-0.1,0c0,0-0.1,0-0.1,0c0,0,0,0.1,0,0.2
		c0,0,0,0.1,0,0.2c0,0.1,0,0.1,0,0.2c0,0.1,0,0.2,0,0.3c0,0.2,0,0.3,0,0.3c0,0.1,0,0.2,0,0.3s0.1,0.2,0.1,0.2c0,0,0,0.1-0.1,0.2
		c-0.1,0.1-0.1,0.1-0.1,0.2s0,0.1,0,0.2c0,0.1,0,0.2,0,0.2c-0.1,0.1-0.1,0.1-0.2,0.1c0,0,0,0.1,0,0.2s0,0.2,0,0.2h-0.1
		c-0.1-0.1-0.1-0.1-0.2-0.1c0,0-0.1,0-0.1,0.1c-0.1,0-0.1,0.1-0.1,0.1c-0.1,0-0.1-0.1-0.2-0.2h-0.2c0,0.1,0,0.2-0.1,0.2
		c0,0,0,0-0.1-0.1c-0.1,0-0.1,0-0.1,0c0,0-0.1,0-0.1,0c0,0,0,0,0,0c0-0.1-0.1-0.1-0.1-0.2c-0.1,0-0.1-0.1-0.2-0.1
		c-0.1,0-0.1,0-0.1,0c0,0,0,0,0-0.1c0,0-0.1-0.1-0.1-0.1s0,0-0.1,0c0,0,0,0-0.1,0c0,0-0.1,0-0.1,0c-0.1,0-0.1-0.1-0.1-0.1
		c0-0.1,0-0.3,0.1-0.6c0.1-0.3,0.1-0.5,0-0.6c0.1-0.1,0-0.3-0.1-0.5c-0.1-0.2-0.2-0.3-0.2-0.3c0-0.1,0-0.2,0-0.4c0-0.2,0-0.4,0-0.5
		c0,0,0-0.1,0-0.3c0-0.2,0-0.3,0-0.3c0,0,0-0.2,0-0.4c0-0.3,0-0.5,0-0.8c0-0.3,0-0.5-0.1-0.9s-0.1-0.5-0.2-0.7
		c0-0.2-0.1-0.3-0.1-0.3c-0.1-0.1-0.1-0.1-0.1-0.2c0,0,0-0.1,0-0.1c0,0,0-0.1,0-0.1c0,0,0.1-0.1,0.1-0.1s0.1-0.2,0.1-0.4
		c0.1-0.1,0.1-0.3,0.2-0.4c0,0,0.1-0.1,0.3-0.3c0.2-0.1,0.3-0.2,0.3-0.3c0.1,0,0.2,0,0.3-0.1c0.1,0,0.2-0.1,0.2-0.1
		c0,0,0.1,0,0.2,0.1c0.1,0,0.2,0.1,0.2,0.1h0.5c0,0,0.1,0,0.2,0c0.1,0,0.1,0,0.2,0c0.1,0,0.1,0,0.2,0c0,0,0,0,0-0.1
		c0.1,0,0.2-0.1,0.3-0.1s0.1-0.1,0.2-0.1c0,0,0.1,0,0.1,0s0.1,0,0.1,0c0.2,0,0.3,0,0.4-0.1c0.1,0,0.1-0.1,0.2-0.1c0,0,0.1,0,0.1,0
		s0.1,0,0.1,0c0,0,0.1,0,0.2,0c0.1,0,0.2,0,0.2,0c0,0,0.1,0,0.1,0c0,0,0.1,0,0.1,0c0.1,0,0.1,0,0.3-0.1c0.3,0,0.6-0.1,0.8-0.1
		c0.1,0,0.2,0,0.2,0c0.1,0,0.2,0,0.2,0.1s0.1,0,0.1,0c0,0,0.1,0,0.1,0c0.1,0,0.1,0,0.1,0c0,0,0.1,0,0.3,0.1c0.2,0.1,0.3,0.1,0.3,0.1
		c0,0,0.1,0,0.1,0c0,0,0.1,0,0.1,0c0.1,0,0.1,0.1,0.2,0.2c0.1,0.1,0.2,0.2,0.2,0.3c0,0,0.1,0.1,0.2,0.1c0.1,0.1,0.2,0.2,0.2,0.3
		c0.3,0,0.6,0.4,0.9,1c0,0,0,0-0.1,0c0,0-0.1,0-0.1,0.1c0,0,0,0,0,0.1c0,0,0,0,0,0.1c0,0,0.1,0.1,0.1,0.1c0,0,0.1,0.1,0.1,0.1
		c0,0.1,0,0.1,0,0.2c0,0,0,0.1,0,0.1c0,0.1,0,0.1,0,0.1c0,0-0.1,0-0.1,0c-0.1,0-0.1,0-0.2,0c-0.1,0-0.1,0.1-0.1,0.1
		c0,0.1,0,0.1,0,0.2c0,0.1,0,0.2,0,0.2c0,0.1,0,0.1,0,0.1c0,0.1,0,0.2-0.1,0.2h-0.1c0,0,0,0-0.1,0c0,0,0,0,0,0
		c-0.1,0-0.2,0.1-0.4,0.3c-0.2,0.2-0.3,0.3-0.4,0.3c0,0,0,0-0.1,0c0,0,0,0-0.1,0c0,0,0,0,0,0c0,0,0,0,0,0c0,0,0,0,0,0c0,0,0,0,0,0
		c0,0,0,0,0,0c0,0,0,0,0,0c-0.1,0-0.1,0-0.1-0.1c0,0-0.1,0.1-0.2,0.2c-0.1,0.1-0.2,0.2-0.3,0.4l-0.1,0.2c0,0.1,0,0.1,0.1,0.2
		c0.1,0.1,0.2,0.1,0.3,0.2c0.1,0.1,0.2,0.1,0.3,0.1s0.2,0.1,0.2,0.1c0.1,0.1,0.3,0.2,0.5,0.3c0,0,0.1,0,0.1,0.1S170,12,170,12
		c0,0,0.1,0,0.1,0c0,0,0.1,0.1,0.3,0.2c0.1,0.1,0.2,0.2,0.3,0.2c0.1,0.1,0.2,0.2,0.2,0.3c0,0,0,0.1,0,0.1c0,0.1,0,0.1,0,0.2
		c0,0.1,0.1,0.1,0.2,0.3C171.3,13.5,171.4,13.6,171.4,13.8z M167.8,8.2c-0.1-0.1-0.3-0.3-0.5-0.4c-0.2-0.1-0.4-0.2-0.6-0.2
		c0,0-0.1,0-0.1,0.1c-0.1,0.1-0.1,0.1-0.1,0.1c0,0-0.1,0-0.1,0c-0.1,0-0.1,0-0.1,0c0,0-0.1,0-0.2,0.1c0,0,0-0.1-0.1-0.1
		s-0.1-0.1-0.1-0.1h-0.1c-0.1,0.1-0.2,0.1-0.3,0.1c-0.1,0-0.2,0-0.3-0.1H165c0,0-0.1,0.1-0.1,0.1c-0.1,0-0.1,0.1-0.1,0.1
		c0,0-0.1,0-0.1,0s-0.1,0-0.1,0c-0.1,0-0.1,0-0.2,0.1c-0.1,0.1-0.1,0.2-0.1,0.3c0,0,0,0.1,0.1,0.3s0.1,0.3,0.2,0.3
		c0.1,0,0.2,0.1,0.3,0.1c0.1,0.1,0.2,0.1,0.2,0.1c0,0,0.1,0,0.2,0c0.1,0,0.1,0,0.2,0c0,0,0.1,0,0.2,0s0.2,0,0.2,0
		c0.3,0,0.5,0,0.7-0.1c0,0,0.1,0,0.3,0c0.1,0,0.2,0,0.2,0c0,0,0.1-0.1,0.2-0.1c0.1,0,0.2-0.1,0.2-0.1s0.1-0.1,0.2-0.1
		C167.7,8.3,167.8,8.3,167.8,8.2z M170.3,9.3h-0.1c0,0-0.1,0.1-0.1,0.1c0,0,0,0,0.1,0C170.2,9.4,170.2,9.3,170.3,9.3z"/>
	<path id="XMLID_45_" class="st0" d="M183.4,8.6c0,0,0,0.1-0.1,0.1s-0.1,0.1-0.1,0.2c0,0,0,0.1,0,0.2s0,0.2-0.1,0.3
		c-0.1,0-0.1-0.1-0.2-0.2c0,0-0.1,0-0.1,0.1c0,0,0,0.1,0.1,0.1c0.1,0,0.1,0,0.2,0c0,0,0,0.1,0,0.1s0,0.1,0,0.1c0,0,0,0.1-0.1,0.1
		c0,0-0.1,0.1-0.1,0.1c0,0,0,0.1-0.1,0.3c0,0.1,0,0.2-0.1,0.3c0,0.1-0.1,0.2-0.2,0.3c-0.1,0.1-0.1,0.2-0.2,0.3
		c-0.1,0-0.2,0.1-0.3,0.3c-0.1,0.1-0.1,0.3-0.1,0.4c-0.1,0.1-0.2,0.2-0.3,0.3c-0.1,0-0.1,0-0.2,0.1c0,0.1-0.1,0.1-0.1,0.2
		c0,0.1-0.1,0.2-0.1,0.2c0,0-0.1,0-0.1,0.1c-0.1,0-0.1,0.1-0.1,0.1c0,0-0.1,0.1-0.1,0.1c0,0-0.1,0.1-0.1,0.1s0,0.1,0,0.1
		c-0.1,0.1-0.2,0.2-0.3,0.3c-0.1,0.1-0.2,0.2-0.2,0.3c-0.1,0.1-0.1,0.1-0.2,0.1c0,0,0,0,0,0l0,0c0,0,0,0,0,0c0,0,0,0,0,0.1
		c0,0-0.1,0-0.1,0c0,0,0,0-0.1,0.1c0,0-0.1,0.1-0.1,0.1c-0.1,0-0.2,0.1-0.3,0.3c-0.1,0.2-0.3,0.3-0.5,0.3c0,0,0,0,0-0.1c0,0,0,0,0,0
		c0,0,0,0-0.1,0.1c0,0-0.1,0.1-0.1,0.1c0,0-0.1,0-0.1-0.1s-0.1-0.1-0.1-0.1c-0.1,0.1-0.2,0.2-0.3,0.3c-0.1-0.1-0.1-0.1-0.2-0.2
		c0,0,0,0-0.1,0.1c0,0-0.1,0.1-0.1,0.1c0,0,0,0-0.1,0c0,0-0.1,0-0.1,0c0,0-0.1,0-0.1,0c0,0-0.1,0-0.1,0l0,0c0,0,0,0,0-0.1
		c0-0.1,0-0.1-0.1-0.2s-0.1-0.1-0.1-0.1c0,0,0,0-0.1,0s0,0-0.1,0c0,0-0.1,0-0.1-0.1c-0.1,0-0.1-0.1-0.1-0.1c0,0-0.1,0-0.1,0l0,0
		c0-0.1,0-0.1,0-0.1c0,0,0,0,0-0.1c-0.1,0-0.1-0.1-0.1-0.1s-0.1-0.1-0.1-0.1c0,0-0.1,0-0.1,0c-0.1,0-0.1,0-0.1,0c0,0,0,0-0.1,0.1
		s0,0.1-0.1,0.2h-0.1c-0.1-0.1-0.2-0.2-0.3-0.3c-0.1,0-0.2,0-0.3,0s-0.2,0-0.2,0c0-0.1,0-0.3-0.1-0.4c-0.1-0.1-0.2-0.1-0.3-0.1
		c0-0.1-0.1-0.2-0.3-0.3c-0.2-0.1-0.3-0.2-0.3-0.2c0,0,0,0,0,0c0,0,0,0,0-0.1c0,0,0,0-0.1-0.1c-0.2-0.2-0.3-0.4-0.4-0.6
		s-0.2-0.5-0.2-0.7c0,0,0-0.1-0.1-0.1c0-0.1-0.1-0.1-0.1-0.1c0-0.1,0-0.3-0.1-0.5s-0.1-0.5-0.1-0.7c0-0.1,0-0.2,0-0.3
		c0.1,0,0.1,0,0.1-0.1c0-0.1,0-0.1,0-0.2l0-0.1c0.1-0.1,0.2-0.1,0.2-0.1c0-0.1,0-0.3,0-0.4c0-0.1,0.1-0.3,0.2-0.5s0.2-0.3,0.2-0.4
		c0.1-0.1,0.2-0.3,0.3-0.5c0.1-0.2,0.2-0.3,0.3-0.4c0.5-0.4,0.9-0.6,1.1-0.6c0.1-0.4,0.2-0.7,0.2-0.9l0.3-0.2
		c0.1-0.1,0.2-0.1,0.4-0.1s0.2-0.1,0.3-0.1c0.1,0,0.1-0.1,0.2-0.3c0.1,0,0.1,0,0.2,0c0,0,0.1,0,0.2,0.1s0.2,0.1,0.2,0.1
		c0,0,0.1,0,0.1-0.1c0.1,0,0.1-0.1,0.1-0.1c0,0,0.1,0,0.1,0s0.1,0,0.2,0c0.1,0,0.3,0,0.4,0c0,0,0,0,0.1-0.1c0,0,0.1-0.1,0.1-0.1
		c0,0,0.1,0,0.1,0.1c0.1,0,0.1,0.1,0.1,0.1c0,0,0,0,0.1,0c0,0,0,0,0.1,0c0,0,0.1,0,0.2,0.1c0.1,0,0.1,0.1,0.2,0.1c0,0,0.1,0,0.2,0
		c0.1,0,0.1,0,0.1,0s0.1,0,0.1,0c0.1,0,0.1,0,0.1,0c0,0,0.1,0,0.2,0c0.1,0,0.2,0,0.2,0c0.1,0,0.1-0.1,0.2-0.2h0.1c0,0,0,0,0,0.1
		s0,0,0,0.1c0,0,0.1,0,0.2,0.1c0.1,0.1,0.1,0.1,0.2,0.1c0,0,0,0,0.1,0.1c0,0.1,0.1,0.1,0.1,0.1c0.5,0.3,0.8,0.7,0.8,1.1
		c0,0.1,0,0.1,0.1,0.2s0.1,0.1,0.2,0.2c0.1,0.1,0.1,0.1,0.1,0.1c0,0,0,0.1,0,0.1c0,0.1,0,0.1,0,0.1s0,0.1,0,0.1c0,0,0,0.1,0.1,0.1
		c0,0,0.1,0,0.1,0c0,0.1,0.1,0.3,0.2,0.6C183.3,8.1,183.4,8.4,183.4,8.6z M180.9,8.7c0-0.1,0-0.1-0.1-0.2c-0.1-0.1-0.1-0.1-0.1-0.2
		s0-0.2,0-0.3c0,0-0.1-0.2-0.4-0.4c0,0,0-0.1,0-0.2c0-0.1,0-0.1,0-0.2s0-0.1,0-0.1c0,0-0.1,0-0.2-0.1c-0.1,0-0.1-0.1-0.2-0.1
		c-0.1,0-0.2,0-0.4,0.1c-0.2,0.1-0.3,0.1-0.3,0.1c0,0,0,0,0,0l0,0c0,0,0,0-0.1,0c0,0-0.1,0-0.1,0c0,0,0,0-0.1,0.1
		c0,0-0.1,0.1-0.2,0.1c-0.1,0-0.2,0.1-0.3,0.1c0,0-0.1,0-0.2-0.1c-0.1-0.1-0.2-0.1-0.2-0.1c0,0-0.1,0-0.1,0.1
		c-0.1,0.1-0.1,0.1-0.1,0.1c-0.1,0-0.2,0-0.3-0.1s-0.2-0.1-0.2-0.1c0,0,0,0,0,0.1c0,0,0,0.1,0,0.1c0,0.1,0,0.1,0,0.1
		c0,0-0.1,0.1-0.2,0.1c-0.1,0.1-0.2,0.1-0.3,0.2s-0.1,0.1-0.2,0.1c0,0.1,0,0.2-0.1,0.3c-0.1,0.1-0.2,0.3-0.3,0.4
		c-0.1,0.1-0.1,0.2-0.1,0.2c0,0.1,0,0.2,0,0.3c0,0.1,0,0.2,0,0.3c0,0,0,0.1,0,0.2c0,0.1,0,0.1-0.1,0.2s0,0.1,0,0.1
		c0,0.3,0.1,0.6,0.2,0.9c0.1,0.3,0.3,0.6,0.5,1c0.2,0.1,0.3,0.1,0.4,0.1c0,0,0.1,0,0.1,0c0,0,0.1,0,0.1,0c0.1,0,0.2,0.1,0.2,0.2
		c0,0,0,0,0.1,0c0,0,0.1,0,0.1,0c0,0,0.1,0,0.1,0c0.1,0,0.1,0,0.1,0s0.1,0,0.1,0c0.1,0,0.1,0,0.1,0c0.1,0,0.3,0,0.4-0.1
		c0.1,0,0.2-0.1,0.3-0.2l0.1-0.1c0,0,0,0,0.1-0.1s0.1-0.1,0.1-0.2s0.1,0,0.1,0c0.1-0.3,0.3-0.6,0.7-1.1c0.4-0.4,0.6-0.8,0.6-0.9
		c0-0.1,0-0.1,0-0.1c0-0.1,0.1-0.2,0.1-0.3S180.8,8.8,180.9,8.7C180.8,8.8,180.9,8.7,180.9,8.7z M177.8,14.2
		C177.8,14.2,177.8,14.2,177.8,14.2c-0.1-0.1-0.1-0.1-0.1-0.1c0,0.1-0.1,0.1-0.1,0.1c0,0,0,0,0.1,0.1s0,0.1,0.1,0.1
		C177.8,14.3,177.8,14.3,177.8,14.2z M178.5,7.3h0.2V7.2L178.5,7.3C178.4,7.2,178.5,7.3,178.5,7.3z"/>
</g>
</svg>
